<?xml version="1.0" standalone="no"?>
<!DOCTYPE svg PUBLIC "-//W3C//DTD SVG 1.1//EN" "http://www.w3.org/Graphics/SVG/1.1/DTD/svg11.dtd" >
<svg xmlns="http://www.w3.org/2000/svg" xmlns:xlink="http://www.w3.org/1999/xlink" version="1.1">
<metadata>
Created by FontForge 20190801 at Wed Aug  8 15:52:44 2001
 By Jimmy Wärting
Copyright 1990-2001 Bitstream Inc.  All rights reserved.
</metadata>
<defs>
<font id="ZurichBT-Roman" horiz-adv-x="1024" >
  <font-face 
    font-family="Zurich BT"
    font-weight="400"
    font-stretch="normal"
    units-per-em="2048"
    panose-1="2 11 6 3 2 2 2 3 2 4"
    ascent="1556"
    descent="-492"
    x-height="1028"
    cap-height="1475"
    bbox="-342 -483 2591 1972"
    underline-thickness="127"
    underline-position="-258"
    unicode-range="U+0020-F002"
  />
<missing-glyph horiz-adv-x="1229" 
d="M102 -362v1806h1024v-1806h-1024zM217 -248h795v1577h-795v-1577z" />
    <glyph glyph-name=".notdef" horiz-adv-x="1229" 
d="M102 -362v1806h1024v-1806h-1024zM217 -248h795v1577h-795v-1577z" />
    <glyph glyph-name=".null" horiz-adv-x="0" 
 />
    <glyph glyph-name="nonmarkingreturn" horiz-adv-x="567" 
 />
    <glyph glyph-name="space" unicode=" " horiz-adv-x="567" 
 />
    <glyph glyph-name="exclam" unicode="!" horiz-adv-x="758" 
d="M305 344l-35 1131h219l-34 -1131h-150zM276 0v207h205v-207h-205z" />
    <glyph glyph-name="quotedbl" unicode="&#x22;" horiz-adv-x="614" 
d="M524 1436v-555h-139v555h139zM229 1436v-555h-139v555h139z" />
    <glyph glyph-name="numbersign" unicode="#" horiz-adv-x="1575" 
d="M969 858h-260l-93 -264h261zM924 1458l-162 -454h256l164 454h164l-160 -454h301l-51 -146h-303l-93 -262h322l-51 -147h-322l-162 -453h-165l161 453h-258l-162 -453h-165l159 453h-309l53 147h310l92 262h-330l51 146h332l162 454h166z" />
    <glyph glyph-name="dollar" unicode="$" horiz-adv-x="1133" 
d="M713 602l-97 23l1 -465q124 9 196 74.5t72 168.5q0 76 -45 127.5t-127 71.5zM516 647l-188 58q-127 38 -189.5 120t-62.5 209q0 167 119.5 274t320.5 117v170h100l1 -168q190 -3 299.5 -95.5t109.5 -250.5v-16h-182q-5 91 -63.5 144.5t-163.5 62.5l-1 -453l103 -28
q187 -51 268.5 -136t81.5 -227q0 -190 -117.5 -301.5t-335.5 -128.5v-197h-100v197q-223 2 -338 105t-115 303v20l191 -1q5 -126 67 -189.5t195 -75.5v487zM516 844v427q-109 -2 -178.5 -65.5t-69.5 -158.5q0 -66 36.5 -106t127.5 -71z" />
    <glyph glyph-name="percent" unicode="%" horiz-adv-x="2015" 
d="M1360 352q0 -119 40 -184.5t113 -65.5q78 0 120 68.5t42 194.5q0 114 -41 176.5t-116 62.5q-77 0 -117.5 -64.5t-40.5 -187.5zM1194 348q0 182 84 279.5t240 97.5q155 0 238 -93t83 -265q0 -188 -86 -290t-246 -102q-150 0 -231.5 97.5t-81.5 275.5zM1364 1450h129
l-842 -1475h-129zM340 1077q0 -119 40 -184.5t114 -65.5q77 0 119 68.5t42 194.5q0 115 -40 177t-115 62q-77 0 -118.5 -65t-41.5 -187zM176 1073q0 182 84 279.5t240 97.5q154 0 236.5 -93t82.5 -265q0 -189 -85.5 -290.5t-244.5 -101.5q-150 0 -231.5 97.5t-81.5 275.5z
" />
    <glyph glyph-name="ampersand" unicode="&#x26;" horiz-adv-x="1241" 
d="M793 168v498h-181q-170 0 -240.5 -59.5t-70.5 -198.5q0 -131 65 -185.5t236 -54.5h191zM762 1309h-148q-143 0 -207.5 -56.5t-64.5 -179.5q0 -121 67 -181.5t201 -60.5h183v224h200v-224h181v-165h-181v-666h-448q-113 0 -170 10.5t-103 34.5q-85 44 -133.5 134.5
t-48.5 207.5q0 154 74.5 250t208.5 115q-109 26 -171.5 114t-62.5 215q0 187 120.5 291.5t338.5 104.5h164v-168z" />
    <glyph glyph-name="quotesingle" unicode="'" horiz-adv-x="317" 
d="M229 1436v-555h-139v555h139z" />
    <glyph glyph-name="parenleft" unicode="(" horiz-adv-x="645" 
d="M397 -286l-1 3q-232 614 -232 901q0 179 50 383t169 496h139q-104 -335 -141 -521t-37 -341q0 -164 43.5 -373t151.5 -549z" />
    <glyph glyph-name="parenright" unicode=")" horiz-adv-x="645" 
d="M123 -287q104 335 141 521t37 341q0 164 -43 373t-152 549h142l4 -11q229 -606 229 -892q0 -177 -50.5 -381t-170.5 -500h-137z" />
    <glyph glyph-name="asterisk" unicode="*" horiz-adv-x="1081" 
d="M395 705l-131 79l209 281l-338 -37v154l338 -37l-209 274l131 78l146 -313l133 313l133 -78l-199 -274l338 37v-154l-338 37l199 -281l-133 -79l-133 321z" />
    <glyph glyph-name="plus" unicode="+" horiz-adv-x="1706" 
d="M924 1221v-541h528v-139h-528v-541h-142v541h-528v139h528v541h142z" />
    <glyph glyph-name="comma" unicode="," horiz-adv-x="567" 
d="M98 -254l135 504h236l-229 -504h-142z" />
    <glyph glyph-name="hyphen" unicode="-" horiz-adv-x="678" 
d="M96 428v172h486v-172h-486z" />
    <glyph glyph-name="period" unicode="." horiz-adv-x="567" 
d="M172 0v252h223v-252h-223z" />
    <glyph glyph-name="slash" unicode="/" horiz-adv-x="616" 
d="M-33 -147l535 1644h123l-535 -1644h-123z" />
    <glyph glyph-name="zero" unicode="0" horiz-adv-x="1133" 
d="M293 707q0 -295 66 -431.5t208 -136.5q140 0 205.5 141t65.5 443q0 289 -67 428t-206 139q-138 0 -205 -143.5t-67 -439.5zM569 -23q-248 0 -361.5 180t-113.5 574q0 362 117 541.5t352 179.5q128 0 227 -58.5t160 -168.5q47 -86 67.5 -205t20.5 -336q0 -355 -116.5 -531
t-352.5 -176z" />
    <glyph glyph-name="one" unicode="1" horiz-adv-x="1133" 
d="M571 0v1194q-67 -58 -146 -107t-169 -88v211q107 52 183.5 105t131.5 112h197v-1427h-197z" />
    <glyph glyph-name="two" unicode="2" horiz-adv-x="1133" 
d="M1012 0h-891v205q400 362 547 546.5t147 309.5q0 98 -63.5 161.5t-159.5 63.5q-114 0 -173 -62t-59 -182h-217q7 194 118.5 302t307.5 108q203 0 324 -106.5t121 -286.5q0 -127 -62 -241.5t-262 -313.5l-336 -336h658v-168z" />
    <glyph glyph-name="three" unicode="3" horiz-adv-x="1133" 
d="M84 378h215q10 -120 70 -176.5t180 -56.5q135 0 214 67.5t79 180.5q0 133 -91.5 198.5t-277.5 65.5l-11 1t-22 1v156q195 6 285 67t90 187q0 98 -65.5 156.5t-176.5 58.5q-115 0 -184.5 -57.5t-73.5 -155.5h-204q3 175 124.5 277t329.5 102q209 0 332 -105.5t123 -281.5
q0 -115 -64.5 -196.5t-193.5 -127.5q134 -28 208 -119t74 -227q0 -188 -137 -303t-366 -115q-218 0 -336.5 105t-120.5 298z" />
    <glyph glyph-name="four" unicode="4" horiz-adv-x="1133" 
d="M698 0v307h-647v250l611 870h227v-950h192v-170h-192v-307h-191zM698 477v744l-491 -744h491z" />
    <glyph glyph-name="five" unicode="5" horiz-adv-x="1133" 
d="M111 348h217q18 -101 78 -151t163 -50q127 0 198 88t71 246q0 141 -72.5 218t-204.5 77q-98 0 -161.5 -50t-80.5 -142h-184l33 843h786v-161h-614l-18 -455q68 67 136 96t156 29q190 0 309 -128t119 -333q0 -221 -141 -360.5t-369 -139.5q-187 0 -300.5 100.5
t-120.5 272.5z" />
    <glyph glyph-name="six" unicode="6" horiz-adv-x="1133" 
d="M291 750q51 88 136 135t194 47q185 0 303 -125.5t118 -325.5q0 -229 -128.5 -365t-340.5 -136q-244 0 -365.5 171.5t-121.5 518.5q0 385 130.5 583.5t383.5 198.5q176 0 289 -96.5t122 -255.5h-204q-14 96 -71 147t-150 51q-146 0 -220 -138t-75 -410zM307 457
q0 -142 76.5 -230t196.5 -88q122 0 197 87.5t75 234.5q0 141 -73.5 227t-192.5 86q-122 0 -200.5 -88.5t-78.5 -228.5z" />
    <glyph glyph-name="seven" unicode="7" horiz-adv-x="1133" 
d="M270 0l551 1251h-725v176h914v-192l-498 -1235h-242z" />
    <glyph glyph-name="eight" unicode="8" horiz-adv-x="1133" 
d="M391 752q-135 32 -212 120t-77 211q0 159 131 263t332 104q204 0 335.5 -103.5t131.5 -263.5q0 -127 -75 -215.5t-207 -115.5q142 -31 223.5 -127.5t81.5 -235.5q0 -185 -134 -299.5t-354 -114.5q-225 0 -356 114t-131 308q0 136 78.5 225.5t232.5 129.5zM305 1071
q0 -98 73 -164.5t187 -66.5q123 0 194.5 62.5t71.5 168.5q0 103 -72.5 165t-195.5 62q-110 0 -184 -65t-74 -162zM289 397q0 -114 76 -186t198 -72q129 0 206 73t77 198q0 111 -76.5 183.5t-200.5 72.5q-126 0 -203 -75t-77 -194z" />
    <glyph glyph-name="nine" unicode="9" horiz-adv-x="1133" 
d="M838 684q-53 -90 -139.5 -138t-196.5 -48q-182 0 -300 125t-118 323q0 233 129 368.5t348 135.5q237 0 358 -174t121 -512q0 -388 -128.5 -587.5t-379.5 -199.5q-181 0 -293.5 95.5t-119.5 255.5h207q12 -92 68 -144.5t143 -52.5q152 0 226.5 136.5t74.5 416.5zM819 973
q0 144 -73 230.5t-193 86.5q-128 0 -203.5 -86t-75.5 -235q0 -141 74.5 -226.5t194.5 -85.5t198 88t78 228z" />
    <glyph glyph-name="colon" unicode=":" horiz-adv-x="758" 
d="M268 1028h221v-252h-221v252zM268 0v252h221v-252h-221z" />
    <glyph glyph-name="semicolon" unicode=";" horiz-adv-x="758" 
d="M141 -254l135 504h236l-229 -504h-142zM492 1028v-252h-224v252h224z" />
    <glyph glyph-name="less" unicode="&#x3c;" horiz-adv-x="1706" 
d="M1442 1006l-969 -396l969 -393v-154l-1178 484v129l1178 483v-153z" />
    <glyph glyph-name="equal" unicode="=" horiz-adv-x="1706" 
d="M1452 481v-139h-1198v139h1198zM1452 879v-140h-1198v140h1198z" />
    <glyph glyph-name="greater" unicode="&#x3e;" horiz-adv-x="1706" 
d="M1442 676v-129l-1178 -484v154l971 393l-971 396v153z" />
    <glyph glyph-name="question" unicode="?" horiz-adv-x="1006" 
d="M344 340v199q0 100 57 159v0q179 181 227 258t48 148q0 100 -74 160.5t-199 60.5q-67 0 -135 -14.5t-137 -44.5v186q75 24 143.5 35.5t135.5 11.5q216 0 347.5 -101.5t131.5 -267.5q0 -100 -49.5 -189t-229.5 -257q-11 -11 -32 -29q-64 -58 -64 -108v-207h-170zM326 0
v213h213v-213h-213z" />
    <glyph glyph-name="at" unicode="@" horiz-adv-x="2048" 
d="M1284 854l57 115h132l-146 -576q-4 -16 -6 -31t-2 -28q0 -46 25.5 -70t74.5 -24q48 0 102.5 26.5t106.5 75.5q80 76 125 186.5t45 233.5q0 259 -190.5 420t-499.5 161q-133 0 -246 -28t-211 -86q-191 -114 -296 -299.5t-105 -409.5q0 -177 61.5 -308t192.5 -230
q100 -77 236.5 -118.5t287.5 -41.5q169 0 328.5 49t292.5 141l55 -82q-148 -111 -314.5 -167t-349.5 -56q-190 0 -348 47t-280 140q-154 118 -230 274t-76 354q0 165 52 313t151 269q146 178 351.5 270t455.5 92q163 0 310 -45t253 -127q130 -100 197.5 -231t67.5 -283
q0 -175 -63.5 -315t-184.5 -236q-68 -54 -149.5 -83t-166.5 -29q-99 0 -149.5 39.5t-50.5 117.5v19q-55 -89 -129 -131.5t-172 -42.5q-153 0 -233.5 85t-80.5 247q0 235 138 394t339 159q85 0 145.5 -37.5t96.5 -112.5zM1190 475l59 236q-17 88 -68.5 136t-129.5 48
q-138 0 -232 -130t-94 -319q0 -105 48.5 -162t137.5 -57q97 0 174.5 69t104.5 179z" />
    <glyph glyph-name="A" unicode="A" horiz-adv-x="1460" 
d="M1006 549l-271 727l-286 -727h557zM219 0h-205l627 1475h211l592 -1475h-230l-147 381h-684z" />
    <glyph glyph-name="B" unicode="B" horiz-adv-x="1313" 
d="M170 0v1475h502q112 0 177.5 -10.5t115.5 -32.5q96 -46 149 -133t53 -201q0 -121 -62 -205t-177 -119q136 -38 207 -136t71 -247q0 -207 -117 -299t-391 -92h-528zM670 164q174 0 250.5 61t76.5 197q0 132 -81.5 197t-245.5 65h-303v-520h303zM651 848q165 0 235 53
t70 174q0 119 -75.5 177.5t-229.5 58.5h-284v-463h284z" />
    <glyph glyph-name="C" unicode="C" horiz-adv-x="1356" 
d="M1268 397q-4 -194 -149 -308t-390 -114q-299 0 -456.5 193.5t-157.5 560.5t164 567.5t466 200.5q238 0 376 -109t143 -300h-209q-10 111 -98.5 182t-217.5 71q-196 0 -304.5 -158.5t-108.5 -447.5q0 -282 105 -436t298 -154q140 0 224.5 67t95.5 185h219z" />
    <glyph glyph-name="D" unicode="D" horiz-adv-x="1481" 
d="M651 0h-465v1479h412q209 0 321.5 -30t200.5 -99q125 -99 190.5 -261.5t65.5 -369.5q0 -171 -46.5 -312.5t-133.5 -232.5q-89 -94 -208 -134t-337 -40zM696 176q237 0 355 135t118 406q0 287 -131.5 441.5t-375.5 154.5h-281v-1137h315z" />
    <glyph glyph-name="E" unicode="E" horiz-adv-x="1237" 
d="M170 0v1475h915v-175h-718v-448h688v-174h-688v-502h735v-176h-932z" />
    <glyph glyph-name="F" unicode="F" horiz-adv-x="1126" 
d="M170 0v1475h858v-177h-661v-452h626v-176h-626v-670h-197z" />
    <glyph glyph-name="G" unicode="G" horiz-adv-x="1524" 
d="M1354 68q-146 -48 -273 -71.5t-245 -23.5q-334 0 -527.5 197t-193.5 535q0 374 190 583t531 209q236 0 374 -104t144 -285h-215q-4 103 -96.5 170.5t-233.5 67.5q-229 0 -358 -163.5t-129 -453.5q0 -280 137 -436t385 -156q62 0 134.5 13t166.5 40v439h-307v166h516v-727
z" />
    <glyph glyph-name="H" unicode="H" horiz-adv-x="1462" 
d="M371 0h-201v1475h201v-629h725v629h196v-1475h-196v670h-725v-670z" />
    <glyph glyph-name="I" unicode="I" horiz-adv-x="539" 
d="M367 0h-197v1475h197v-1475z" />
    <glyph glyph-name="J" unicode="J" horiz-adv-x="1081" 
d="M723 500v975h197v-1010q0 -242 -113.5 -366t-335.5 -124q-203 0 -314.5 99.5t-111.5 281.5q0 8 1 22t1 21h195q0 -4 -1 -15.5t-1 -16.5q0 -107 57 -163.5t164 -56.5q141 0 201.5 79.5t60.5 273.5z" />
    <glyph glyph-name="K" unicode="K" horiz-adv-x="1331" 
d="M170 0v1475h197v-633l606 633h264l-641 -656l719 -819h-283l-665 780v-780h-197z" />
    <glyph glyph-name="L" unicode="L" horiz-adv-x="1096" 
d="M170 0v1475h195v-1299h671v-176h-866z" />
    <glyph glyph-name="M" unicode="M" horiz-adv-x="1862" 
d="M1497 0v1319l-471 -1319h-170l-487 1305v-1305h-197v1475h336l438 -1203l418 1203h326v-1475h-193z" />
    <glyph glyph-name="N" unicode="N" horiz-adv-x="1503" 
d="M172 0v1475h281l698 -1203v1203h178v-1475h-242l-733 1251v-1251h-182z" />
    <glyph glyph-name="O" unicode="O" horiz-adv-x="1579" 
d="M328 743q0 -287 119.5 -442.5t340.5 -155.5q224 0 342.5 152.5t118.5 441.5t-119 442.5t-342 153.5q-222 0 -341 -153t-119 -439zM117 733q0 367 175.5 565.5t498.5 198.5t497 -197.5t174 -566.5q0 -363 -175 -560.5t-496 -197.5q-320 0 -497 199t-177 559z" />
    <glyph glyph-name="P" unicode="P" horiz-adv-x="1235" 
d="M651 829q164 0 234.5 55.5t70.5 180.5q0 129 -69.5 184.5t-235.5 55.5h-284v-476h284zM170 0v1475h514q242 0 361.5 -101t119.5 -305q0 -218 -139.5 -320t-437.5 -102h-221v-647h-197z" />
    <glyph glyph-name="Q" unicode="Q" horiz-adv-x="1579" 
d="M1548 0h-514q-36 0 -117.5 -7t-125.5 -7q-320 0 -497 197.5t-177 555.5q0 365 175.5 562.5t498.5 197.5t497 -197t174 -563q0 -181 -56 -323.5t-165 -237.5h307v-178zM328 750q0 -286 119 -438t341 -152q224 0 342.5 151t118.5 437q0 285 -119 437t-342 152
q-221 0 -340.5 -152t-119.5 -435z" />
    <glyph glyph-name="R" unicode="R" horiz-adv-x="1327" 
d="M655 846q174 0 244 53t70 180q0 114 -66 161.5t-248 47.5h-288v-442h288zM170 0v1475h520q245 0 368.5 -97t123.5 -288q0 -131 -72.5 -223t-200.5 -126q96 -23 142 -70t69 -150q7 -33 31 -212t61 -309h-211q-29 124 -50 297.5t-38 218.5q-30 85 -93.5 117.5t-205.5 32.5
h-247v-666h-197z" />
    <glyph glyph-name="S" unicode="S" horiz-adv-x="1343" 
d="M325 432q6 -145 89 -213.5t252 -68.5q166 0 262 68.5t96 187.5q0 168 -343 255q-37 9 -59 15q-23 6 -67 17q-189 46 -264 91q-75 46 -117.5 125t-42.5 174q0 192 148.5 303t408.5 111q229 0 360.5 -97.5t131.5 -266.5v-23h-199q-5 109 -85 167t-226 58
q-151 0 -240.5 -65.5t-89.5 -175.5q0 -143 315 -224q25 -6 40 -10q343 -89 438.5 -178.5t95.5 -247.5q0 -222 -148 -340.5t-428 -118.5q-269 0 -403.5 108t-134.5 325v24h210z" />
    <glyph glyph-name="T" unicode="T" horiz-adv-x="1235" 
d="M715 0h-197v1298h-489v177h1177v-177h-491v-1298z" />
    <glyph glyph-name="U" unicode="U" horiz-adv-x="1491" 
d="M152 1475h202v-871q0 -233 94 -341.5t293 -108.5q214 0 310 112.5t96 368.5v840h190v-963q0 -252 -162 -393.5t-452 -141.5q-285 0 -428 148.5t-143 441.5v908z" />
    <glyph glyph-name="V" unicode="V" horiz-adv-x="1346" 
d="M764 0h-217l-514 1475h221l410 -1246l438 1246h213z" />
    <glyph glyph-name="W" unicode="W" horiz-adv-x="2001" 
d="M434 0l-401 1475h194l318 -1180l356 1180h223l324 -1207l332 1207h188l-426 -1475h-207l-334 1255l-374 -1255h-193z" />
    <glyph glyph-name="X" unicode="X" horiz-adv-x="1434" 
d="M45 0l561 774l-491 701h231l391 -568l389 568h232l-512 -701l543 -774h-238l-430 639l-445 -639h-231z" />
    <glyph glyph-name="Y" unicode="Y" horiz-adv-x="1346" 
d="M776 0h-196v582l-562 893h244l426 -719l414 719h225l-551 -893v-582z" />
    <glyph glyph-name="Z" unicode="Z" horiz-adv-x="1233" 
d="M1159 0h-1085v209l846 1089h-811v177h1024v-211l-838 -1082h864v-182z" />
    <glyph glyph-name="bracketleft" unicode="[" horiz-adv-x="645" 
d="M561 -311h-348v1786h348v-111h-188v-1565h188v-110z" />
    <glyph glyph-name="backslash" unicode="\" horiz-adv-x="616" 
d="M502 -147l-535 1644h123l533 -1644h-121z" />
    <glyph glyph-name="bracketright" unicode="]" horiz-adv-x="645" 
d="M84 1475h348v-1786h-348v110h186v1565h-186v111z" />
    <glyph glyph-name="asciicircum" unicode="^" horiz-adv-x="2048" 
d="M1116 1458l510 -557h-180l-422 420l-424 -420h-180l510 557h186z" />
    <glyph glyph-name="underscore" unicode="_" 
d="M1024 -340v-143h-1024v143h1024z" />
    <glyph glyph-name="grave" unicode="`" 
d="M655 1163h-120l-285 348h201z" />
    <glyph glyph-name="a" unicode="a" horiz-adv-x="1087" 
d="M948 0h-170q-10 29 -19 151l-1 11q-39 -92 -123 -139.5t-207 -47.5q-156 0 -250 85t-94 225q0 162 130.5 258t354.5 96h179v125q0 83 -51.5 125.5t-151.5 42.5q-95 0 -150.5 -47t-58.5 -129h-182v12q0 138 97 211.5t281 73.5q213 0 309.5 -75.5t96.5 -244.5v-635
q0 -20 2.5 -45t7.5 -53zM748 510h-160q-147 0 -228 -55t-81 -152q0 -75 55 -124.5t139 -49.5q134 0 204.5 71t70.5 208v102z" />
    <glyph glyph-name="b" unicode="b" horiz-adv-x="1233" 
d="M158 1475h188v-603q76 88 161 130t187 42q208 0 322 -138.5t114 -393.5q0 -247 -118 -392t-318 -145q-119 0 -204 40.5t-144 125.5l-8 -141h-193q7 57 10 108t3 97v1270zM346 496q0 -181 81.5 -288.5t215.5 -107.5q133 0 213 114.5t80 311.5q0 181 -81 287.5t-216 106.5
q-133 0 -213 -114.5t-80 -309.5z" />
    <glyph glyph-name="c" unicode="c" horiz-adv-x="1057" 
d="M956 346q-12 -180 -115 -275.5t-286 -95.5q-219 0 -338 134.5t-119 382.5q0 265 124.5 413t346.5 148q173 0 276 -93.5t103 -250.5v-4h-184q0 92 -60 153.5t-149 61.5q-123 0 -191.5 -105t-68.5 -295q0 -195 66 -298t190 -103q99 0 159 61.5t62 165.5h184z" />
    <glyph glyph-name="d" unicode="d" horiz-adv-x="1233" 
d="M297 526q0 -196 80.5 -311t212.5 -115q135 0 216 106.5t81 287.5q0 196 -80 311t-213 115q-135 0 -216 -106.5t-81 -287.5zM895 0l-8 152q-72 -94 -149.5 -135.5t-180.5 -41.5q-212 0 -334.5 142t-122.5 389q0 253 119.5 395.5t331.5 142.5q106 0 190.5 -43t145.5 -129
v603h188v-1270q0 -46 3 -97t9 -108h-192z" />
    <glyph glyph-name="e" unicode="e" horiz-adv-x="1128" 
d="M301 617l530 -1v23q0 128 -70.5 206.5t-182.5 78.5q-123 0 -199 -84t-78 -223zM1005 330q-3 -166 -117 -260.5t-313 -94.5q-227 0 -350 134.5t-123 384.5q0 270 122.5 414.5t350.5 144.5q208 0 328.5 -119.5t120.5 -325.5q0 -47 -1 -73.5t-3 -51.5h-729q-1 -10 -1.5 -22
t-0.5 -35q0 -149 75 -229t214 -80q113 0 179.5 57.5t68.5 155.5h179z" />
    <glyph glyph-name="f" unicode="f" horiz-adv-x="631" 
d="M180 889h-188v139h188v164q0 155 71 231t214 76q29 0 66 -4t106 -14v-152q-57 14 -82.5 18.5t-46.5 4.5q-67 0 -102 -42.5t-35 -121.5v-160h237v-139h-237v-889h-191v889z" />
    <glyph glyph-name="g" unicode="g" horiz-adv-x="1214" 
d="M879 559q0 167 -79 265t-212 98q-131 0 -209 -106t-78 -288q0 -167 79 -264.5t212 -97.5q130 0 208.5 105.5t78.5 287.5zM856 195q-31 -63 -120.5 -105.5t-196.5 -42.5q-208 0 -322.5 131.5t-114.5 370.5q0 235 121 369.5t332 134.5q107 0 189.5 -40t125.5 -112l7 127
h178q-4 -52 -6 -98.5t-2 -83.5v-813q0 -230 -114.5 -335.5t-363.5 -105.5q-217 0 -315 81.5t-100 262.5h204q2 -102 60.5 -156t169.5 -54q137 0 202.5 67.5t65.5 208.5v193z" />
    <glyph glyph-name="h" unicode="h" horiz-adv-x="1204" 
d="M356 858q36 85 122.5 133.5t199.5 48.5q101 0 186.5 -37.5t132.5 -101.5q27 -36 38.5 -88t11.5 -176v-637h-189v649q0 130 -55.5 191t-173.5 61q-120 0 -196.5 -65t-76.5 -168v-668h-190v1475h190v-617z" />
    <glyph glyph-name="i" unicode="i" horiz-adv-x="512" 
d="M367 1266h-222v209h222v-209zM162 0v1028h190v-1028h-190z" />
    <glyph glyph-name="j" unicode="j" horiz-adv-x="512" 
d="M362 1266h-219v209h219v-209zM158 1030h190v-1141q0 -155 -67 -223.5t-218 -68.5q-9 0 -33 2t-57 6v139q112 0 148.5 30t36.5 122v1134z" />
    <glyph glyph-name="k" unicode="k" horiz-adv-x="1016" 
d="M346 0h-190v1475h190v-867l389 422h232l-428 -444l458 -586h-233l-418 551v-551z" />
    <glyph glyph-name="l" unicode="l" horiz-adv-x="512" 
d="M352 0h-190v1475h190v-1475z" />
    <glyph glyph-name="m" unicode="m" horiz-adv-x="1868" 
d="M356 0h-190v815q0 48 -2 101.5t-6 111.5h192l6 -174q38 84 123 135t189 51t187.5 -44t150.5 -136q79 97 159 138.5t185 41.5q118 0 209.5 -52.5t126.5 -139.5q11 -27 16.5 -83t5.5 -136v-629h-184v655q0 121 -58 180.5t-176 59.5q-109 0 -181.5 -73t-72.5 -185v-637h-192
v621q0 142 -55 209t-171 67q-123 0 -192.5 -72.5t-69.5 -203.5v-621z" />
    <glyph glyph-name="n" unicode="n" horiz-adv-x="1204" 
d="M356 860q36 84 122 132t200 48q101 0 186.5 -37.5t132.5 -101.5q27 -36 38.5 -87.5t11.5 -174.5v-639h-189v649q0 130 -55.5 191t-173.5 61q-120 0 -196.5 -65t-76.5 -168v-668h-190v817q0 50 -2 102.5t-6 108.5h192z" />
    <glyph glyph-name="o" unicode="o" horiz-adv-x="1233" 
d="M618 915q-146 0 -231.5 -110.5t-85.5 -300.5q0 -185 81.5 -285t231.5 -100q149 0 233.5 106.5t84.5 294.5t-82.5 291.5t-231.5 103.5zM106 494q0 258 137.5 407.5t374.5 149.5q240 0 373 -139.5t133 -389.5q0 -256 -135.5 -401.5t-374.5 -145.5t-373.5 137t-134.5 382z
" />
    <glyph glyph-name="p" unicode="p" horiz-adv-x="1229" 
d="M342 535q0 -196 80.5 -311t212.5 -115q135 0 216 107t81 288q0 196 -80 310t-213 114q-135 0 -216 -106.5t-81 -286.5zM154 -389v1214q0 46 -3 95.5t-10 107.5h193l8 -154q58 90 140.5 134.5t191.5 44.5q212 0 332 -142t120 -393q0 -259 -115.5 -396.5t-332.5 -137.5
q-103 0 -189.5 44.5t-146.5 129.5v-547h-188z" />
    <glyph glyph-name="q" unicode="q" horiz-adv-x="1233" 
d="M885 535q0 180 -81.5 286.5t-215.5 106.5q-133 0 -212 -113.5t-79 -310.5q0 -181 81 -288t216 -107q132 0 211.5 114.5t79.5 311.5zM1075 -389h-190v547q-60 -85 -146 -129.5t-188 -44.5q-218 0 -334.5 138t-116.5 396q0 251 121 393t334 142q108 0 190 -44.5t140 -134.5
l8 154h192q-5 -49 -7.5 -98t-2.5 -105v-1214z" />
    <glyph glyph-name="r" unicode="r" horiz-adv-x="758" 
d="M156 0v903q0 28 -1.5 59t-4.5 66h190l4 -197q28 98 100.5 147.5t188.5 49.5q19 0 38.5 -1.5t39.5 -5.5v-177q-30 6 -55 9t-48 3q-127 0 -195.5 -72t-68.5 -206v-578h-188z" />
    <glyph glyph-name="s" unicode="s" horiz-adv-x="1006" 
d="M84 309h190v-4q0 -84 59 -135t156 -51q98 0 158 44t60 116q0 54 -30.5 88t-92.5 49l-219 51q-138 32 -205.5 99t-67.5 169q0 139 113 228.5t293 89.5q179 0 281 -73t102 -200q0 -12 -0.5 -18.5t-1.5 -11.5h-189v8q0 74 -53.5 117t-144.5 43q-88 0 -145.5 -43t-57.5 -107
q0 -49 35 -80t116 -53l234 -64q121 -32 179 -100t58 -176q0 -151 -112.5 -235.5t-315.5 -84.5q-201 0 -300 76t-99 230v28z" />
    <glyph glyph-name="t" unicode="t" horiz-adv-x="649" 
d="M20 1028h175v211l188 64v-275h229v-135h-229v-631q0 -80 26.5 -105.5t104.5 -25.5q20 0 40.5 3t53.5 11v-143q-50 -13 -88.5 -19t-73.5 -6q-133 0 -192 51.5t-59 166.5v698h-175v135z" />
    <glyph glyph-name="u" unicode="u" horiz-adv-x="1204" 
d="M848 162q-36 -84 -123 -133t-201 -49q-99 0 -184 38t-133 103q-27 36 -38 87.5t-11 174.5v645h188v-657q0 -130 56 -191t173 -61q120 0 196.5 66t76.5 169v674h190v-825q0 -56 2 -106t7 -97h-193z" />
    <glyph glyph-name="v" unicode="v" horiz-adv-x="1112" 
d="M453 0l-420 1028h192l328 -815l332 815h188l-434 -1028h-186z" />
    <glyph glyph-name="w" unicode="w" horiz-adv-x="1659" 
d="M954 1028l234 -825l262 825h184l-356 -1028h-199l-248 864l-270 -864h-201l-337 1028h186l256 -825l258 825h231z" />
    <glyph glyph-name="x" unicode="x" horiz-adv-x="1118" 
d="M27 0l395 541l-369 487h242l270 -385l283 385h219l-391 -496l393 -532h-244l-293 414l-288 -414h-217z" />
    <glyph glyph-name="y" unicode="y" horiz-adv-x="1112" 
d="M453 2l-420 1026h192l328 -815l332 815h188l-602 -1417h-176z" />
    <glyph glyph-name="z" unicode="z" horiz-adv-x="899" 
d="M66 0v190l548 697h-514v141h723v-166l-563 -717h561v-145h-755z" />
    <glyph glyph-name="braceleft" unicode="{" 
d="M866 1327h-41q-120 0 -161 -44.5t-41 -184.5v-242q0 -160 -44.5 -228t-156.5 -98q113 -28 157 -96t44 -229v-242q0 -141 41.5 -185t162.5 -44h39v-148h-43q-108 0 -169 11.5t-103 37.5q-55 34 -77.5 97t-22.5 211v245q0 149 -54.5 210t-185.5 61q-7 0 -21.5 -1t-21.5 -1
v149q8 0 23 -1t22 -1q130 0 184 60.5t54 207.5v246q0 148 22.5 210.5t77.5 96.5q45 28 108.5 40t169.5 12h37v-150z" />
    <glyph glyph-name="bar" unicode="|" 
d="M588 1565v-2048h-150v2048h150z" />
    <glyph glyph-name="braceright" unicode="}" 
d="M575 1118v-246q0 -147 54 -207.5t184 -60.5q7 0 22 1t23 1v-149q-7 0 -22 1t-21 1q-132 0 -186 -60.5t-54 -210.5v-245q0 -148 -22.5 -211t-77.5 -97q-42 -26 -103 -37.5t-169 -11.5h-43v148h39q120 0 162 45t42 186v240q0 160 44.5 228t156.5 97q-112 30 -156.5 98
t-44.5 228v242q0 140 -42 184.5t-162 44.5h-39v150h37q107 0 171 -12.5t107 -39.5q55 -34 77.5 -96.5t22.5 -210.5z" />
    <glyph glyph-name="asciitilde" unicode="~" horiz-adv-x="1706" 
d="M1530 614q-104 -72 -199 -106.5t-190 -34.5q-93 0 -256 58q-22 8 -34 12l-15 5q-176 60 -273 60q-84 0 -175 -37t-210 -120v155q106 72 202 108t185 36q62 0 127.5 -13.5t163.5 -48.5q16 -5 47 -17q159 -57 240 -57q88 0 179.5 37t207.5 119v-156z" />
    <glyph glyph-name="Adieresis" unicode="&#xc4;" horiz-adv-x="1460" 
d="M1006 549l-271 727l-286 -727h557zM219 0h-205l627 1475h211l592 -1475h-230l-147 381h-684zM824 1669v209h182v-209h-182zM494 1669v209h182v-209h-182z" />
    <glyph glyph-name="Aring" unicode="&#xc5;" horiz-adv-x="1460" 
d="M633 1745q0 -49 33 -83t82 -34q46 0 81 35t35 82q0 46 -35 81.5t-81 35.5q-48 0 -81.5 -34.5t-33.5 -82.5zM518 1743q0 95 67 162t163 67q94 0 160.5 -67t66.5 -162t-66 -161t-161 -66q-96 0 -163 66t-67 161zM1006 549l-271 727l-286 -727h557zM219 0h-205l627 1456h211
l592 -1456h-230l-147 381h-684z" />
    <glyph glyph-name="Ccedilla" unicode="&#xc7;" horiz-adv-x="1356" 
d="M1268 397q-4 -194 -149 -308t-390 -114q-299 0 -456.5 193.5t-157.5 560.5t164 567.5t466 200.5q238 0 376 -109t143 -300h-209q-10 111 -98.5 182t-217.5 71q-196 0 -304.5 -158.5t-108.5 -447.5q0 -282 105 -436t298 -154q140 0 224.5 67t95.5 185h219zM477 -426v100
q75 -18 140.5 -28.5t105.5 -10.5q60 0 90.5 20.5t30.5 61.5q0 43 -32.5 64.5t-94.5 21.5q-20 0 -33.5 -0.5t-26.5 -0.5v198h76v-102h31q106 0 163.5 -45.5t57.5 -128.5q0 -97 -63 -146t-187 -49q-49 0 -114 11.5t-144 33.5z" />
    <glyph glyph-name="Eacute" unicode="&#xc9;" horiz-adv-x="1237" 
d="M170 0v1475h915v-175h-718v-448h688v-174h-688v-502h735v-176h-932zM488 1609l204 348h201l-285 -348h-120z" />
    <glyph glyph-name="Ntilde" unicode="&#xd1;" horiz-adv-x="1503" 
d="M172 0v1475h281l698 -1203v1203h178v-1475h-242l-733 1251v-1251h-182zM1067 1888q-20 -102 -70.5 -155.5t-126.5 -53.5q-14 0 -30.5 2.5t-34.5 7.5l-97 27q-12 4 -24 6t-25 2q-31 0 -53.5 -16.5t-36.5 -51.5h-88q18 99 68 152t125 53q17 0 32 -2t27 -6l98 -29
q23 -6 33.5 -8t18.5 -2q35 0 57.5 17t38.5 57h88z" />
    <glyph glyph-name="Odieresis" unicode="&#xd6;" horiz-adv-x="1579" 
d="M328 743q0 -287 119.5 -442.5t340.5 -155.5q224 0 342.5 152.5t118.5 441.5t-119 442.5t-342 153.5q-222 0 -341 -153t-119 -439zM117 733q0 367 175.5 565.5t498.5 198.5t497 -197.5t174 -566.5q0 -363 -175 -560.5t-496 -197.5q-320 0 -497 199t-177 559zM865 1669v209
h182v-209h-182zM535 1669v209h182v-209h-182z" />
    <glyph glyph-name="Udieresis" unicode="&#xdc;" horiz-adv-x="1491" 
d="M152 1475h202v-871q0 -233 94 -341.5t293 -108.5q214 0 310 112.5t96 368.5v840h190v-963q0 -252 -162 -393.5t-452 -141.5q-285 0 -428 148.5t-143 441.5v908zM819 1669v209h182v-209h-182zM489 1669v209h182v-209h-182z" />
    <glyph glyph-name="aacute" unicode="&#xe1;" horiz-adv-x="1087" 
d="M948 0h-170q-10 29 -19 151l-1 11q-39 -92 -123 -139.5t-207 -47.5q-156 0 -250 85t-94 225q0 162 130.5 258t354.5 96h179v125q0 83 -51.5 125.5t-151.5 42.5q-95 0 -150.5 -47t-58.5 -129h-182v12q0 138 97 211.5t281 73.5q213 0 309.5 -75.5t96.5 -244.5v-635
q0 -20 2.5 -45t7.5 -53zM748 510h-160q-147 0 -228 -55t-81 -152q0 -75 55 -124.5t139 -49.5q134 0 204.5 71t70.5 208v102zM402 1163l204 348h201l-285 -348h-120z" />
    <glyph glyph-name="agrave" unicode="&#xe0;" horiz-adv-x="1087" 
d="M948 0h-170q-10 29 -19 151l-1 11q-39 -92 -123 -139.5t-207 -47.5q-156 0 -250 85t-94 225q0 162 130.5 258t354.5 96h179v125q0 83 -51.5 125.5t-151.5 42.5q-95 0 -150.5 -47t-58.5 -129h-182v12q0 138 97 211.5t281 73.5q213 0 309.5 -75.5t96.5 -244.5v-635
q0 -20 2.5 -45t7.5 -53zM748 510h-160q-147 0 -228 -55t-81 -152q0 -75 55 -124.5t139 -49.5q134 0 204.5 71t70.5 208v102zM688 1163h-120l-285 348h201z" />
    <glyph glyph-name="acircumflex" unicode="&#xe2;" horiz-adv-x="1087" 
d="M948 0h-170q-10 29 -19 151l-1 11q-39 -92 -123 -139.5t-207 -47.5q-156 0 -250 85t-94 225q0 162 130.5 258t354.5 96h179v125q0 83 -51.5 125.5t-151.5 42.5q-95 0 -150.5 -47t-58.5 -129h-182v12q0 138 97 211.5t281 73.5q213 0 309.5 -75.5t96.5 -244.5v-635
q0 -20 2.5 -45t7.5 -53zM748 510h-160q-147 0 -228 -55t-81 -152q0 -75 55 -124.5t139 -49.5q134 0 204.5 71t70.5 208v102zM250 1163l197 348h196l197 -348h-123l-172 230l-174 -230h-121z" />
    <glyph glyph-name="adieresis" unicode="&#xe4;" horiz-adv-x="1087" 
d="M948 0h-170q-10 29 -19 151l-1 11q-39 -92 -123 -139.5t-207 -47.5q-156 0 -250 85t-94 225q0 162 130.5 258t354.5 96h179v125q0 83 -51.5 125.5t-151.5 42.5q-95 0 -150.5 -47t-58.5 -129h-182v12q0 138 97 211.5t281 73.5q213 0 309.5 -75.5t96.5 -244.5v-635
q0 -20 2.5 -45t7.5 -53zM748 510h-160q-147 0 -228 -55t-81 -152q0 -75 55 -124.5t139 -49.5q134 0 204.5 71t70.5 208v102zM619 1223v209h182v-209h-182zM289 1223v209h182v-209h-182z" />
    <glyph glyph-name="atilde" unicode="&#xe3;" horiz-adv-x="1087" 
d="M948 0h-170q-10 29 -19 151l-1 11q-39 -92 -123 -139.5t-207 -47.5q-156 0 -250 85t-94 225q0 162 130.5 258t354.5 96h179v125q0 83 -51.5 125.5t-151.5 42.5q-95 0 -150.5 -47t-58.5 -129h-182v12q0 138 97 211.5t281 73.5q213 0 309.5 -75.5t96.5 -244.5v-635
q0 -20 2.5 -45t7.5 -53zM748 510h-160q-147 0 -228 -55t-81 -152q0 -75 55 -124.5t139 -49.5q134 0 204.5 71t70.5 208v102zM838 1442q-20 -102 -70.5 -155.5t-126.5 -53.5q-14 0 -30.5 2.5t-34.5 7.5l-97 27q-12 4 -24 6t-25 2q-31 0 -53.5 -16.5t-36.5 -51.5h-88
q18 99 68 152t125 53q17 0 32 -2t27 -6l98 -29q23 -6 33.5 -8t18.5 -2q35 0 57.5 17t38.5 57h88z" />
    <glyph glyph-name="aring" unicode="&#xe5;" horiz-adv-x="1087" 
d="M451 1350q0 -48 33.5 -81.5t82.5 -33.5q47 0 81 34t34 81q0 46 -34.5 81t-80.5 35q-47 0 -81.5 -34.5t-34.5 -81.5zM338 1350q0 95 66 162t161 67t162.5 -67t67.5 -162t-67 -161.5t-163 -66.5q-95 0 -161 66t-66 162zM948 0h-170q-10 29 -19 151l-1 11
q-39 -92 -123 -139.5t-207 -47.5q-156 0 -250 85t-94 225q0 162 130.5 258t354.5 96h179v125q0 83 -51.5 125.5t-151.5 42.5q-95 0 -150.5 -47t-58.5 -129h-182v12q0 138 97 211.5t281 73.5q213 0 309.5 -75.5t96.5 -244.5v-635q0 -20 2.5 -45t7.5 -53zM748 510h-160
q-147 0 -228 -55t-81 -152q0 -75 55 -124.5t139 -49.5q134 0 204.5 71t70.5 208v102z" />
    <glyph glyph-name="ccedilla" unicode="&#xe7;" horiz-adv-x="1057" 
d="M956 346q-12 -180 -115 -275.5t-286 -95.5q-219 0 -338 134.5t-119 382.5q0 265 124.5 413t346.5 148q173 0 276 -93.5t103 -250.5v-4h-184q0 92 -60 153.5t-149 61.5q-123 0 -191.5 -105t-68.5 -295q0 -195 66 -298t190 -103q99 0 159 61.5t62 165.5h184zM291 -426v100
q75 -18 140.5 -28.5t105.5 -10.5q60 0 90.5 20.5t30.5 61.5q0 43 -32.5 64.5t-94.5 21.5q-20 0 -33.5 -0.5t-26.5 -0.5v198h76v-102h31q106 0 163.5 -45.5t57.5 -128.5q0 -97 -63 -146t-187 -49q-49 0 -114 11.5t-144 33.5z" />
    <glyph glyph-name="eacute" unicode="&#xe9;" horiz-adv-x="1128" 
d="M301 617l530 -1v23q0 128 -70.5 206.5t-182.5 78.5q-123 0 -199 -84t-78 -223zM1005 330q-3 -166 -117 -260.5t-313 -94.5q-227 0 -350 134.5t-123 384.5q0 270 122.5 414.5t350.5 144.5q208 0 328.5 -119.5t120.5 -325.5q0 -47 -1 -73.5t-3 -51.5h-729q-1 -10 -1.5 -22
t-0.5 -35q0 -149 75 -229t214 -80q113 0 179.5 57.5t68.5 155.5h179zM422 1163l204 348h201l-285 -348h-120z" />
    <glyph glyph-name="egrave" unicode="&#xe8;" horiz-adv-x="1128" 
d="M301 617l530 -1v23q0 128 -70.5 206.5t-182.5 78.5q-123 0 -199 -84t-78 -223zM1005 330q-3 -166 -117 -260.5t-313 -94.5q-227 0 -350 134.5t-123 384.5q0 270 122.5 414.5t350.5 144.5q208 0 328.5 -119.5t120.5 -325.5q0 -47 -1 -73.5t-3 -51.5h-729q-1 -10 -1.5 -22
t-0.5 -35q0 -149 75 -229t214 -80q113 0 179.5 57.5t68.5 155.5h179zM708 1163h-120l-285 348h201z" />
    <glyph glyph-name="ecircumflex" unicode="&#xea;" horiz-adv-x="1128" 
d="M301 617l530 -1v23q0 128 -70.5 206.5t-182.5 78.5q-123 0 -199 -84t-78 -223zM1005 330q-3 -166 -117 -260.5t-313 -94.5q-227 0 -350 134.5t-123 384.5q0 270 122.5 414.5t350.5 144.5q208 0 328.5 -119.5t120.5 -325.5q0 -47 -1 -73.5t-3 -51.5h-729q-1 -10 -1.5 -22
t-0.5 -35q0 -149 75 -229t214 -80q113 0 179.5 57.5t68.5 155.5h179zM270 1163l197 348h196l197 -348h-123l-172 230l-174 -230h-121z" />
    <glyph glyph-name="edieresis" unicode="&#xeb;" horiz-adv-x="1128" 
d="M301 617l530 -1v23q0 128 -70.5 206.5t-182.5 78.5q-123 0 -199 -84t-78 -223zM1005 330q-3 -166 -117 -260.5t-313 -94.5q-227 0 -350 134.5t-123 384.5q0 270 122.5 414.5t350.5 144.5q208 0 328.5 -119.5t120.5 -325.5q0 -47 -1 -73.5t-3 -51.5h-729q-1 -10 -1.5 -22
t-0.5 -35q0 -149 75 -229t214 -80q113 0 179.5 57.5t68.5 155.5h179zM639 1223v209h182v-209h-182zM309 1223v209h182v-209h-182z" />
    <glyph glyph-name="iacute" unicode="&#xed;" horiz-adv-x="512" 
d="M162 0v1028h190v-1028h-190zM113 1163l204 348h201l-285 -348h-120z" />
    <glyph glyph-name="igrave" unicode="&#xec;" horiz-adv-x="512" 
d="M162 0v1028h190v-1028h-190zM399 1163h-120l-285 348h201z" />
    <glyph glyph-name="icircumflex" unicode="&#xee;" horiz-adv-x="512" 
d="M162 0v1028h190v-1028h-190zM-39 1163l197 348h196l197 -348h-123l-172 230l-174 -230h-121z" />
    <glyph glyph-name="idieresis" unicode="&#xef;" horiz-adv-x="512" 
d="M162 0v1028h190v-1028h-190zM330 1223v209h182v-209h-182zM0 1223v209h182v-209h-182z" />
    <glyph glyph-name="ntilde" unicode="&#xf1;" horiz-adv-x="1204" 
d="M356 860q36 84 122 132t200 48q101 0 186.5 -37.5t132.5 -101.5q27 -36 38.5 -87.5t11.5 -174.5v-639h-189v649q0 130 -55.5 191t-173.5 61q-120 0 -196.5 -65t-76.5 -168v-668h-190v817q0 50 -2 102.5t-6 108.5h192zM895 1442q-20 -102 -70.5 -155.5t-126.5 -53.5
q-14 0 -30.5 2.5t-34.5 7.5l-97 27q-12 4 -24 6t-25 2q-31 0 -53.5 -16.5t-36.5 -51.5h-88q18 99 68 152t125 53q17 0 32 -2t27 -6l98 -29q23 -6 33.5 -8t18.5 -2q35 0 57.5 17t38.5 57h88z" />
    <glyph glyph-name="oacute" unicode="&#xf3;" horiz-adv-x="1233" 
d="M618 915q-146 0 -231.5 -110.5t-85.5 -300.5q0 -185 81.5 -285t231.5 -100q149 0 233.5 106.5t84.5 294.5t-82.5 291.5t-231.5 103.5zM106 494q0 258 137.5 407.5t374.5 149.5q240 0 373 -139.5t133 -389.5q0 -256 -135.5 -401.5t-374.5 -145.5t-373.5 137t-134.5 382z
M473 1163l204 348h201l-285 -348h-120z" />
    <glyph glyph-name="ograve" unicode="&#xf2;" horiz-adv-x="1233" 
d="M618 915q-146 0 -231.5 -110.5t-85.5 -300.5q0 -185 81.5 -285t231.5 -100q149 0 233.5 106.5t84.5 294.5t-82.5 291.5t-231.5 103.5zM106 494q0 258 137.5 407.5t374.5 149.5q240 0 373 -139.5t133 -389.5q0 -256 -135.5 -401.5t-374.5 -145.5t-373.5 137t-134.5 382z
M759 1163h-120l-285 348h201z" />
    <glyph glyph-name="ocircumflex" unicode="&#xf4;" horiz-adv-x="1233" 
d="M618 915q-146 0 -231.5 -110.5t-85.5 -300.5q0 -185 81.5 -285t231.5 -100q149 0 233.5 106.5t84.5 294.5t-82.5 291.5t-231.5 103.5zM106 494q0 258 137.5 407.5t374.5 149.5q240 0 373 -139.5t133 -389.5q0 -256 -135.5 -401.5t-374.5 -145.5t-373.5 137t-134.5 382z
M321 1163l197 348h196l197 -348h-123l-172 230l-174 -230h-121z" />
    <glyph glyph-name="odieresis" unicode="&#xf6;" horiz-adv-x="1233" 
d="M618 915q-146 0 -231.5 -110.5t-85.5 -300.5q0 -185 81.5 -285t231.5 -100q149 0 233.5 106.5t84.5 294.5t-82.5 291.5t-231.5 103.5zM106 494q0 258 137.5 407.5t374.5 149.5q240 0 373 -139.5t133 -389.5q0 -256 -135.5 -401.5t-374.5 -145.5t-373.5 137t-134.5 382z
M690 1223v209h182v-209h-182zM360 1223v209h182v-209h-182z" />
    <glyph glyph-name="otilde" unicode="&#xf5;" horiz-adv-x="1233" 
d="M618 915q-146 0 -231.5 -110.5t-85.5 -300.5q0 -185 81.5 -285t231.5 -100q149 0 233.5 106.5t84.5 294.5t-82.5 291.5t-231.5 103.5zM106 494q0 258 137.5 407.5t374.5 149.5q240 0 373 -139.5t133 -389.5q0 -256 -135.5 -401.5t-374.5 -145.5t-373.5 137t-134.5 382z
M909 1442q-20 -102 -70.5 -155.5t-126.5 -53.5q-14 0 -30.5 2.5t-34.5 7.5l-97 27q-12 4 -24 6t-25 2q-31 0 -53.5 -16.5t-36.5 -51.5h-88q18 99 68 152t125 53q17 0 32 -2t27 -6l98 -29q23 -6 33.5 -8t18.5 -2q35 0 57.5 17t38.5 57h88z" />
    <glyph glyph-name="uacute" unicode="&#xfa;" horiz-adv-x="1204" 
d="M848 162q-36 -84 -123 -133t-201 -49q-99 0 -184 38t-133 103q-27 36 -38 87.5t-11 174.5v645h188v-657q0 -130 56 -191t173 -61q120 0 196.5 66t76.5 169v674h190v-825q0 -56 2 -106t7 -97h-193zM451 1163l204 348h201l-285 -348h-120z" />
    <glyph glyph-name="ugrave" unicode="&#xf9;" horiz-adv-x="1204" 
d="M848 162q-36 -84 -123 -133t-201 -49q-99 0 -184 38t-133 103q-27 36 -38 87.5t-11 174.5v645h188v-657q0 -130 56 -191t173 -61q120 0 196.5 66t76.5 169v674h190v-825q0 -56 2 -106t7 -97h-193zM737 1163h-120l-285 348h201z" />
    <glyph glyph-name="ucircumflex" unicode="&#xfb;" horiz-adv-x="1204" 
d="M848 162q-36 -84 -123 -133t-201 -49q-99 0 -184 38t-133 103q-27 36 -38 87.5t-11 174.5v645h188v-657q0 -130 56 -191t173 -61q120 0 196.5 66t76.5 169v674h190v-825q0 -56 2 -106t7 -97h-193zM299 1163l197 348h196l197 -348h-123l-172 230l-174 -230h-121z" />
    <glyph glyph-name="udieresis" unicode="&#xfc;" horiz-adv-x="1204" 
d="M848 162q-36 -84 -123 -133t-201 -49q-99 0 -184 38t-133 103q-27 36 -38 87.5t-11 174.5v645h188v-657q0 -130 56 -191t173 -61q120 0 196.5 66t76.5 169v674h190v-825q0 -56 2 -106t7 -97h-193zM668 1223v209h182v-209h-182zM338 1223v209h182v-209h-182z" />
    <glyph glyph-name="dagger" unicode="&#x2020;" horiz-adv-x="1081" 
d="M627 0h-172v1004h-367v155h367v316h172v-316h364v-155h-364v-1004z" />
    <glyph glyph-name="degree" unicode="&#xb0;" horiz-adv-x="674" 
d="M530 1169q0 81 -55.5 137t-136.5 56t-138 -56t-57 -137t57 -138.5t138 -57.5t136.5 57.5t55.5 138.5zM338 1456q118 0 202.5 -84.5t84.5 -204.5q0 -119 -84 -202.5t-205 -83.5t-204 83t-83 203t84.5 204.5t204.5 84.5z" />
    <glyph glyph-name="cent" unicode="&#xa2;" horiz-adv-x="1133" 
d="M414 33q-135 49 -206 174.5t-71 314.5q0 260 122 411.5t329 151.5q25 0 54.5 -3t66.5 -9l71 252l103 -29l-76 -256q91 -44 134.5 -117t45.5 -185h-184q-2 46 -12.5 78t-30.5 54l-205 -716q5 0 20 -1t25 -1q91 0 150 62.5t62 162.5h183q-9 -173 -117 -274t-282 -101
q-12 0 -33 2t-47 6l-78 -276l-102 30zM459 190l208 745q-20 8 -41 11.5t-40 3.5q-116 0 -184 -102t-68 -279q0 -147 29.5 -236.5t95.5 -142.5z" />
    <glyph glyph-name="sterling" unicode="&#xa3;" horiz-adv-x="1133" 
d="M1057 0h-987v156h145v534h-145v139h145v175q0 229 107.5 337.5t332.5 108.5q213 0 325.5 -84t114.5 -246l-200 1q-5 94 -64 144t-165 50q-113 0 -180.5 -64t-67.5 -172v-250h280v-139h-280v-534h639v-156z" />
    <glyph glyph-name="section" unicode="&#xa7;" horiz-adv-x="1081" 
d="M537 600q51 0 114.5 62t63.5 118q0 57 -67 106.5t-128 49.5q-45 0 -103.5 -61t-58.5 -117t60 -107t119 -51zM221 18v175q77 -35 140.5 -51.5t117.5 -16.5q101 0 157 42t56 118q0 96 -174 150l-30 9q-193 62 -247.5 116.5t-54.5 146.5t57.5 163.5t166.5 112.5
q-96 32 -144.5 91t-48.5 143q0 129 98.5 204.5t270.5 75.5q47 0 105 -9t134 -28v-155q-65 27 -126 41t-111 14q-80 0 -124 -36.5t-44 -100.5q0 -95 189 -153q15 -5 22 -7q136 -42 193 -99.5t57 -150.5q0 -89 -55 -160.5t-154 -111.5q108 -26 165.5 -93t57.5 -167
q0 -142 -111 -224t-305 -82q-59 0 -122 10.5t-136 32.5z" />
    <glyph glyph-name="bullet" unicode="&#x2022;" horiz-adv-x="1208" 
d="M307 762q0 123 87 209t210 86q122 0 208.5 -86.5t86.5 -208.5t-87.5 -209.5t-209.5 -87.5q-123 0 -209 87t-86 210z" />
    <glyph glyph-name="paragraph" unicode="&#xb6;" 
d="M958 1393h-120v-1393h-111v1393h-176v-1393h-113v782q-170 8 -271 102.5t-101 245.5q0 157 107.5 253t285.5 96h499v-86z" />
    <glyph glyph-name="germandbls" unicode="&#xdf;" horiz-adv-x="1319" 
d="M346 0h-190v1063q0 228 109.5 332t348.5 104q202 0 318.5 -81.5t116.5 -221.5q0 -59 -25.5 -108t-75.5 -87q-17 -13 -48 -35q-103 -75 -103 -132q0 -71 127 -144q46 -27 71 -43q113 -74 163 -151.5t50 -176.5q0 -148 -113 -242.5t-292 -94.5q-154 0 -237 79t-89 232h190
q4 -82 46 -126t116 -44q90 0 143.5 51t53.5 135q0 61 -41.5 112.5t-136.5 106.5q-154 89 -198 146t-44 131q0 56 25.5 99t101.5 102q76 56 102.5 96t26.5 88q0 78 -68 129t-176 51q-139 0 -205.5 -73.5t-66.5 -229.5v-1067z" />
    <glyph glyph-name="registered" unicode="&#xae;" horiz-adv-x="1706" 
d="M844 1057h-129v-277h133q113 0 162 31.5t49 101.5q0 76 -51 110t-164 34zM872 1159q174 0 261.5 -57.5t87.5 -171.5q0 -89 -50 -148t-141 -77l187 -381h-177l-170 356h-155v-356h-158v835h315zM1493 721q0 134 -46.5 251t-135.5 206q-92 93 -208.5 141.5t-248.5 48.5
q-130 0 -245 -47t-201 -135q-94 -95 -144.5 -214t-50.5 -245q0 -125 48.5 -240.5t139.5 -207.5q90 -92 206.5 -141.5t240.5 -49.5q130 0 246.5 48t212.5 140q90 88 138 202.5t48 242.5zM852 1464q151 0 286 -56t240 -163q103 -104 158 -238t55 -280q0 -151 -55 -283.5
t-160 -234.5q-109 -106 -244.5 -162.5t-279.5 -56.5q-147 0 -280.5 56.5t-239.5 164.5q-105 106 -160 238.5t-55 277.5q0 146 57.5 282.5t165.5 245.5q101 103 231.5 156t280.5 53z" />
    <glyph glyph-name="copyright" unicode="&#xa9;" horiz-adv-x="1706" 
d="M1053 907q-13 77 -66 118.5t-139 41.5q-105 0 -165 -90.5t-60 -249.5q0 -157 62 -244.5t173 -87.5q82 0 136.5 47t68.5 129h145q-9 -130 -107.5 -211t-248.5 -81q-182 0 -285.5 120t-103.5 334q0 200 109 322.5t286 122.5q142 0 236.5 -75t105.5 -196h-147zM1493 727
q0 130 -47.5 246.5t-136.5 206.5q-93 92 -209 140t-246 48q-129 0 -243.5 -47t-204.5 -137q-93 -93 -143 -211.5t-50 -245.5q0 -126 49 -242t141 -209q92 -91 207.5 -139.5t243.5 -48.5q125 0 242 49t213 142q90 88 137 202.5t47 245.5zM852 1464q152 0 285.5 -54.5
t238.5 -160.5q104 -103 159.5 -238.5t55.5 -283.5q0 -149 -54.5 -281.5t-158.5 -234.5q-110 -107 -245.5 -164t-280.5 -57t-278.5 56t-239.5 163q-106 105 -161.5 238.5t-55.5 279.5q0 147 56 281.5t163 242.5q104 104 236 158.5t280 54.5z" />
    <glyph glyph-name="trademark" unicode="&#x2122;" horiz-adv-x="1706" 
d="M963 1458l151 -385l141 385h150v-538h-98v444l-166 -444h-56l-174 444v-444h-98v538h150zM694 1458v-80h-172v-458h-108v458h-172v80h452z" />
    <glyph glyph-name="acute" unicode="&#xb4;" 
d="M369 1163l204 348h201l-285 -348h-120z" />
    <glyph glyph-name="dieresis" unicode="&#xa8;" 
d="M586 1223v209h182v-209h-182zM256 1223v209h182v-209h-182z" />
    <glyph glyph-name="notequal" unicode="&#x2260;" horiz-adv-x="1706" 
d="M1313 1112l-187 -235h326v-136h-416l-205 -262h621v-135h-709l-249 -317l-105 84l184 233h-319v135h408l204 262h-612v136h702l252 317z" />
    <glyph glyph-name="AE" unicode="&#xc6;" horiz-adv-x="2015" 
d="M195 0h-215l831 1475h1049v-179h-740l76 -450h635v-176h-604l86 -492h571v-178h-745l-64 399h-661zM1047 575l-121 748l-412 -748h533z" />
    <glyph glyph-name="Oslash" unicode="&#xd8;" horiz-adv-x="1579" 
d="M332 135q-109 101 -162 249t-53 349q0 367 175.5 565.5t498.5 198.5q111 0 197.5 -21t160.5 -65l139 217l92 -57l-145 -223q115 -95 171 -247t56 -368q0 -363 -175 -560.5t-496 -197.5q-112 0 -203 24t-172 75l-166 -256l-88 57zM518 231q61 -44 126.5 -65t148.5 -21
q223 0 341.5 152.5t118.5 441.5q0 168 -29.5 276.5t-90.5 170.5zM1053 1260q-62 38 -126 56.5t-134 18.5q-223 0 -342 -153t-119 -439q0 -135 27 -242.5t81 -189.5z" />
    <glyph glyph-name="infinity" unicode="&#x221e;" horiz-adv-x="1706" 
d="M915 559q49 -88 116 -133t151 -45q101 0 165 67.5t64 172.5q0 101 -59 168t-148 67q-82 0 -148.5 -67.5t-140.5 -229.5zM793 666q-49 88 -115.5 132t-151.5 44q-102 0 -165.5 -66t-63.5 -172q0 -101 59 -168t148 -67q82 0 149 68t140 229zM864 483
q-70 -135 -148.5 -198.5t-172.5 -63.5q-136 0 -229 111.5t-93 277.5q0 175 83.5 283t217.5 108q95 0 171.5 -63t148.5 -201q68 138 147 203.5t176 65.5q134 0 228 -112.5t94 -279.5q0 -175 -83.5 -282t-217.5 -107q-94 0 -168.5 59.5t-153.5 198.5z" />
    <glyph glyph-name="plusminus" unicode="&#xb1;" horiz-adv-x="1706" 
d="M1452 170v-141h-1198v141h1198zM924 1192v-340h528v-139h-528v-340h-142v340h-528v139h528v340h142z" />
    <glyph glyph-name="lessequal" unicode="&#x2264;" horiz-adv-x="1706" 
d="M1446 162v-139h-1184v139h1184zM1444 1059l-936 -309l936 -306v-149l-1182 395v121l1182 395v-147z" />
    <glyph glyph-name="greaterequal" unicode="&#x2265;" horiz-adv-x="1706" 
d="M1446 162v-139h-1184v139h1184zM1446 811v-121l-1184 -395v149l938 306l-938 309v147z" />
    <glyph glyph-name="yen" unicode="&#xa5;" horiz-adv-x="1239" 
d="M717 0h-191v563l-16 27h-485v94h424l-134 207h-290v96h229l-287 440h226l438 -712l424 712h211l-279 -440h227v-96h-290l-131 -207h421v-94h-483l-14 -27v-563z" />
    <glyph glyph-name="mu" unicode="&#xb5;" horiz-adv-x="1151" 
d="M385 1071l-129 -600q-7 -32 -10.5 -64.5t-3.5 -68.5q0 -99 52 -153t148 -54q132 0 208.5 92.5t123.5 311.5l115 536h178l-156 -732q-1 -6 -4 -20q-18 -87 -18 -112q0 -37 16.5 -52.5t55.5 -15.5q12 0 18.5 0.5t13.5 1.5l-31 -143q-24 -5 -50 -7.5t-58 -2.5q-63 0 -97 29
t-52 100q-45 -66 -112.5 -98.5t-158.5 -32.5q-82 0 -143 27.5t-113 88.5l-110 -530h-181l318 1499h180z" />
    <glyph glyph-name="partialdiff" unicode="&#x2202;" horiz-adv-x="1059" 
d="M756 621q15 87 22.5 168.5t7.5 156.5q0 129 -36.5 194.5t-108.5 65.5q-55 0 -127 -58t-108 -58t-60 22t-24 53q0 62 72 111t173 49q180 0 287 -155t107 -418q0 -335 -144.5 -556t-357.5 -221q-152 0 -253.5 108t-101.5 271q0 198 110.5 326.5t272.5 128.5
q101 0 166 -45.5t103 -142.5zM707 494q0 116 -43.5 178.5t-122.5 62.5q-109 0 -179.5 -129t-70.5 -336q0 -116 43 -177.5t123 -61.5q109 0 179.5 130t70.5 333z" />
    <glyph glyph-name="summation" unicode="&#x2211;" horiz-adv-x="1380" 
d="M55 1473h1258v-193h-959l672 -717l-694 -764h1007v-192h-1314v149l725 801l-695 739v177z" />
    <glyph glyph-name="product" unicode="&#x220f;" horiz-adv-x="1550" 
d="M156 1473h1237v-1866h-240v1661h-758v-1661h-239v1866z" />
    <glyph glyph-name="pi" unicode="&#x3c0;" horiz-adv-x="1206" 
d="M1159 913h-182l-105 -487q-15 -74 -22.5 -120t-7.5 -68q0 -58 23.5 -82.5t78.5 -24.5q17 0 40 2.5t60 7.5l-30 -141q-30 -8 -57.5 -12t-53.5 -4q-118 0 -178.5 51t-60.5 151q0 46 10.5 118t44.5 233l80 376h-326l-194 -913h-181l195 913h-41q-54 0 -84 -32t-39 -101h-160
q28 166 99.5 228.5t236.5 62.5h889z" />
    <glyph glyph-name="integral" unicode="&#x222b;" horiz-adv-x="1067" 
d="M311 -262q106 0 120 688q2 108 3 165q12 515 107 737t297 222q80 0 130 -42t50 -107q0 -54 -32 -85.5t-87 -31.5q-42 0 -70 19t-40 54q-6 15 -10.5 51t-20.5 36q-107 0 -121 -619q-4 -193 -8 -303q-17 -479 -111.5 -686t-290.5 -207q-79 0 -129.5 41.5t-50.5 106.5
q0 56 34 87.5t95 31.5q33 0 57 -14.5t39 -42.5q10 -18 15 -59.5t24 -41.5z" />
    <glyph glyph-name="ordfeminine" unicode="&#xaa;" horiz-adv-x="815" 
d="M102 602h570v-113h-570v113zM440 1104q-106 0 -164.5 -36t-58.5 -101q0 -53 39.5 -84t108.5 -31q87 0 136.5 49.5t49.5 138.5v64h-111zM713 1268v-445q0 -13 2.5 -32.5t7.5 -42.5h-148q-3 15 -6.5 35.5t-7.5 51.5q-37 -53 -97 -79.5t-145 -26.5q-119 0 -192.5 62
t-73.5 161q0 117 102 187.5t273 70.5h123v78q0 56 -35 83.5t-106 27.5q-69 0 -108.5 -33t-41.5 -92h-158v8q0 104 77.5 160.5t219.5 56.5q154 0 234 -53t80 -154v-24z" />
    <glyph glyph-name="ordmasculine" unicode="&#xba;" horiz-adv-x="924" 
d="M129 602h668v-113h-668v113zM463 1386q-106 0 -166.5 -74t-60.5 -204q0 -127 58.5 -195.5t166.5 -68.5q106 0 166.5 72t60.5 200q0 131 -58 200.5t-167 69.5zM465 1497q183 0 286 -100t103 -277q0 -182 -105 -286.5t-288 -104.5q-185 0 -288 98t-103 273
q0 182 106.5 289.5t288.5 107.5z" />
    <glyph glyph-name="Omega" unicode="&#x3a9;" horiz-adv-x="1565" 
d="M1487 178v-178h-600v178q177 97 276 263t99 368q0 240 -132 385t-348 145t-348.5 -145.5t-132.5 -384.5q0 -202 99.5 -368t277.5 -263v-178h-600v178h319q-158 139 -230.5 288t-72.5 333q0 318 191.5 515t496.5 197q303 0 495.5 -196.5t192.5 -505.5q0 -194 -71 -342
t-232 -289h320z" />
    <glyph glyph-name="ae" unicode="&#xe6;" horiz-adv-x="1839" 
d="M995 616h541v23q0 128 -70.5 206.5t-183.5 78.5q-121 0 -197 -81.5t-90 -226.5zM805 483h-236q-147 0 -217.5 -45t-70.5 -139q0 -82 61 -132t162 -50q130 0 212 79t87 214zM909 874q65 94 150 137.5t205 43.5q218 0 341.5 -119t123.5 -328q0 -25 -2 -56.5t-5 -68.5h-727
q0 -16 -1 -38.5t-1 -28.5q0 -141 77 -220t212 -79q113 0 178.5 57t67.5 155h182q-3 -166 -117.5 -260t-314.5 -94q-132 0 -223.5 48t-159.5 153q-78 -105 -177 -153t-241 -48q-180 0 -283.5 88t-103.5 240q0 161 116 237t363 76h236v9q0 153 -59.5 221.5t-190.5 68.5
q-99 0 -157 -40.5t-58 -108.5v-4h-193q8 140 109.5 215.5t282.5 75.5q145 0 234.5 -43.5t135.5 -135.5z" />
    <glyph glyph-name="oslash" unicode="&#xf8;" horiz-adv-x="1233" 
d="M164 -156l127 207q-92 83 -138.5 194t-46.5 251q0 258 139 407.5t380 149.5q65 0 121.5 -13t111.5 -41l113 195l94 -47l-115 -199q85 -62 129.5 -171t44.5 -257q0 -256 -137.5 -400.5t-382.5 -144.5q-53 0 -106 8t-107 23l-129 -217zM860 795l-387 -650
q30 -13 61.5 -19.5t67.5 -6.5q159 0 244.5 104.5t85.5 298.5q0 88 -17.5 153t-54.5 120zM385 209l397 663q-38 22 -78.5 32.5t-85.5 10.5q-145 0 -231 -110.5t-86 -296.5q0 -93 21.5 -170t62.5 -129z" />
    <glyph glyph-name="questiondown" unicode="&#xbf;" horiz-adv-x="1006" 
d="M662 1135v-199q0 -67 -8 -93t-50 -69l-4 -4q-272 -276 -272 -399q0 -100 74.5 -160.5t199.5 -60.5q68 0 135.5 14.5t136.5 44.5v-189q-71 -22 -140.5 -33.5t-139.5 -11.5q-216 0 -347.5 102t-131.5 267q0 182 273 438l7 6q11 10 29 27q65 59 65 111l1.5 12t1.5 23v174
h170zM680 1475v-213h-213v213h213z" />
    <glyph glyph-name="exclamdown" unicode="&#xa1;" horiz-adv-x="758" 
d="M453 1130l36 -1130h-219l33 1130h150zM481 1475v-207h-205v207h205z" />
    <glyph glyph-name="logicalnot" unicode="&#xac;" horiz-adv-x="1706" 
d="M1452 860v-502h-137v363h-1061v139h1198z" />
    <glyph glyph-name="radical" unicode="&#x221a;" horiz-adv-x="1305" 
d="M1116 1661h189v-96h-115l-594 -1606h-66l-319 883l-125 -45l-25 80l283 98l256 -709z" />
    <glyph glyph-name="florin" unicode="&#x192;" horiz-adv-x="1133" 
d="M74 -330l28 146h7q150 0 195 229q2 11 3 16l144 715h-189l27 135h186l39 219q30 166 107.5 243t214.5 77q23 0 53 -2.5t71 -7.5l-22 -146q-27 7 -47 10t-35 3q-71 0 -108.5 -38.5t-57.5 -142.5l-41 -215h211l-26 -135h-211l-140 -725q-44 -222 -119 -303.5t-223 -81.5
q-18 0 -62 4h-5z" />
    <glyph glyph-name="approxequal" unicode="&#x2248;" horiz-adv-x="1706" 
d="M1530 430q-105 -73 -199.5 -107t-189.5 -34t-285 67.5t-293 67.5q-82 0 -171.5 -36t-213.5 -122v156q108 73 204 109t183 36q115 0 305 -68.5t273 -68.5q88 0 177 35.5t210 120.5v-156zM1530 799q-105 -73 -199.5 -107.5t-189.5 -34.5t-285 68t-293 68q-83 0 -171.5 -36
t-213.5 -122v156q106 72 202 107.5t185 35.5q116 0 305.5 -67.5t272.5 -67.5q87 0 175 34.5t212 120.5v-155z" />
    <glyph glyph-name="Delta" unicode="&#x2206;" horiz-adv-x="1370" 
d="M684 1262l-418 -1084h836zM573 1473h224l579 -1473h-1382z" />
    <glyph glyph-name="guillemotleft" unicode="&#xab;" horiz-adv-x="1001" 
d="M889 113h-162l-227 409l213 393h164l-183 -393zM502 113h-162l-225 409l213 393h164l-183 -393z" />
    <glyph glyph-name="guillemotright" unicode="&#xbb;" horiz-adv-x="1001" 
d="M113 113l194 409l-182 393h164l213 -393l-228 -409h-161zM500 113l192 409l-182 393h164l213 -393l-228 -409h-159z" />
    <glyph glyph-name="ellipsis" unicode="&#x2026;" horiz-adv-x="2048" 
d="M229 0v252h223v-252h-223zM911 0v252h223v-252h-223zM1595 0v252h223v-252h-223z" />
    <glyph glyph-name="nonbreakingspace" unicode="&#xa0;" horiz-adv-x="1133" 
 />
    <glyph glyph-name="Agrave" unicode="&#xc0;" horiz-adv-x="1460" 
d="M1006 549l-271 727l-286 -727h557zM219 0h-205l627 1475h211l592 -1475h-230l-147 381h-684zM893 1609h-120l-285 348h201z" />
    <glyph glyph-name="Atilde" unicode="&#xc3;" horiz-adv-x="1460" 
d="M1006 549l-271 727l-286 -727h557zM219 0h-205l627 1475h211l592 -1475h-230l-147 381h-684zM1043 1888q-20 -102 -70.5 -155.5t-126.5 -53.5q-14 0 -30.5 2.5t-34.5 7.5l-97 27q-12 4 -24 6t-25 2q-31 0 -53.5 -16.5t-36.5 -51.5h-88q18 99 68 152t125 53q17 0 32 -2
t27 -6l98 -29q23 -6 33.5 -8t18.5 -2q35 0 57.5 17t38.5 57h88z" />
    <glyph glyph-name="Otilde" unicode="&#xd5;" horiz-adv-x="1579" 
d="M328 743q0 -287 119.5 -442.5t340.5 -155.5q224 0 342.5 152.5t118.5 441.5t-119 442.5t-342 153.5q-222 0 -341 -153t-119 -439zM117 733q0 367 175.5 565.5t498.5 198.5t497 -197.5t174 -566.5q0 -363 -175 -560.5t-496 -197.5q-320 0 -497 199t-177 559zM1084 1888
q-20 -102 -70.5 -155.5t-126.5 -53.5q-14 0 -30.5 2.5t-34.5 7.5l-97 27q-12 4 -24 6t-25 2q-31 0 -53.5 -16.5t-36.5 -51.5h-88q18 99 68 152t125 53q17 0 32 -2t27 -6l98 -29q23 -6 33.5 -8t18.5 -2q35 0 57.5 17t38.5 57h88z" />
    <glyph glyph-name="OE" unicode="&#x152;" horiz-adv-x="2038" 
d="M1038 174v1126q-61 7 -117 11t-100 4q-249 0 -376.5 -144.5t-127.5 -427.5q0 -286 130.5 -433.5t383.5 -147.5q38 0 89 3t118 9zM1935 -2h-768q-52 0 -169.5 -5t-182.5 -5q-353 0 -526.5 188t-173.5 569q0 369 180.5 556.5t535.5 187.5q56 0 159.5 -6t152.5 -6h792v-174
h-692v-453h653v-176h-653v-500h692v-176z" />
    <glyph glyph-name="oe" unicode="&#x153;" horiz-adv-x="1919" 
d="M1094 619l532 -1v23q0 128 -70.5 205.5t-183.5 77.5q-123 0 -199.5 -83.5t-78.5 -221.5zM604 913q-143 0 -226 -110t-83 -299q0 -185 80 -286t227 -101q144 0 226.5 105.5t82.5 293.5q0 190 -80.5 293.5t-226.5 103.5zM1802 329q-3 -164 -118 -259t-312 -95
q-126 0 -221 43t-160 129q-80 -89 -178 -130.5t-229 -41.5q-227 0 -354.5 137.5t-127.5 381.5q0 257 131 407t357 150q140 0 235.5 -41.5t175.5 -135.5q74 93 163 136t206 43q208 0 329.5 -120t121.5 -325q0 -45 -1 -72t-3 -53h-730v-84q0 -131 78 -207.5t209 -76.5
q113 0 179.5 57.5t68.5 156.5h180z" />
    <glyph glyph-name="endash" unicode="&#x2013;" 
d="M0 451v127h1024v-127h-1024z" />
    <glyph glyph-name="emdash" unicode="&#x2014;" horiz-adv-x="2048" 
d="M0 451v127h2048v-127h-2048z" />
    <glyph glyph-name="quotedblleft" unicode="&#x201c;" horiz-adv-x="897" 
d="M821 1475l-137 -504h-233l229 504h141zM446 1475l-137 -504h-233l229 504h141z" />
    <glyph glyph-name="quotedblright" unicode="&#x201d;" horiz-adv-x="897" 
d="M451 971l137 504h233l-229 -504h-141zM76 971l135 504h235l-229 -504h-141z" />
    <glyph glyph-name="quoteleft" unicode="&#x2018;" horiz-adv-x="522" 
d="M446 1475l-137 -504h-233l229 504h141z" />
    <glyph glyph-name="quoteright" unicode="&#x2019;" horiz-adv-x="522" 
d="M76 971l135 504h235l-229 -504h-141z" />
    <glyph glyph-name="divide" unicode="&#xf7;" horiz-adv-x="1706" 
d="M854 367q51 0 88 -37t37 -88q0 -52 -36.5 -88.5t-88.5 -36.5q-53 0 -89 36t-36 89q0 51 37 88t88 37zM1452 680v-139h-1198v139h1198zM854 1106q51 0 88 -37.5t37 -89.5q0 -51 -36.5 -88t-88.5 -37t-88.5 36.5t-36.5 88.5t37 89.5t88 37.5z" />
    <glyph glyph-name="lozenge" unicode="&#x25ca;" horiz-adv-x="1012" 
d="M506 1409l-385 -817l385 -825l385 825zM506 1653l500 -1061l-500 -1069l-500 1069z" />
    <glyph glyph-name="ydieresis" unicode="&#xff;" horiz-adv-x="1112" 
d="M453 2l-420 1026h192l328 -815l332 815h188l-602 -1417h-176zM631 1223v209h182v-209h-182zM301 1223v209h182v-209h-182z" />
    <glyph glyph-name="Ydieresis" unicode="&#x178;" horiz-adv-x="1346" 
d="M776 0h-196v582l-562 893h244l426 -719l414 719h225l-551 -893v-582zM748 1669v209h182v-209h-182zM418 1669v209h182v-209h-182z" />
    <glyph glyph-name="fraction" unicode="&#x2215;" horiz-adv-x="342" 
d="M-342 -25l899 1475h125l-899 -1475h-125z" />
    <glyph glyph-name="currency" unicode="&#xa4;" horiz-adv-x="1133" 
d="M147 547h-141l53 121h82q-1 24 -1.5 46t-0.5 42q0 12 0.5 25.5t1.5 29.5h-164l52 117h118q20 276 149 422.5t351 146.5q193 0 301.5 -108.5t114.5 -309.5l-199 1q-9 119 -69.5 187t-157.5 68q-121 0 -197.5 -107t-91.5 -300h443l-52 -117h-399q-1 -24 -1.5 -45.5
t-0.5 -42.5q0 -13 0.5 -26.5t1.5 -28.5h334l-53 -121h-273q15 -200 89 -305t200 -105q96 0 156.5 70.5t64.5 187.5h209q-2 -192 -119.5 -306t-314.5 -114q-208 0 -334.5 149t-151.5 423z" />
    <glyph glyph-name="guilsinglleft" unicode="&#x2039;" horiz-adv-x="616" 
d="M502 113h-162l-225 409l213 393h164l-183 -393z" />
    <glyph glyph-name="guilsinglright" unicode="&#x203a;" horiz-adv-x="616" 
d="M115 113l192 409l-182 393h164l213 -393l-228 -409h-159z" />
    <glyph glyph-name="fi" unicode="&#xf001;" horiz-adv-x="1190" 
d="M1049 1266h-220v209h220v-209zM197 889h-189v139h189v164q0 155 70.5 231t213.5 76q29 0 66.5 -4t105.5 -14v-152l-7 2q-83 21 -120 21q-67 0 -103 -42.5t-36 -121.5v-160h238v-139h-238v-889h-190v889zM844 0v1028h190v-1028h-190z" />
    <glyph glyph-name="fl" unicode="&#xf002;" horiz-adv-x="1190" 
d="M197 889h-189v139h189v164q0 155 70.5 231t213.5 76q29 0 66.5 -4t105.5 -14v-152l-7 2q-83 21 -120 21q-67 0 -103 -42.5t-36 -121.5v-160h238v-139h-238v-889h-190v889zM844 0v1475h190v-1475h-190z" />
    <glyph glyph-name="daggerdbl" unicode="&#x2021;" horiz-adv-x="1081" 
d="M627 0h-172v340h-367v154h367v510h-367v155h367v316h172v-316h364v-155h-364v-510h364v-154h-364v-340z" />
    <glyph glyph-name="periodcentered" unicode="&#xb7;" horiz-adv-x="567" 
d="M143 715q0 58 40.5 98.5t99.5 40.5q57 0 99 -41t42 -98q0 -59 -41.5 -100.5t-99.5 -41.5q-59 0 -99.5 41t-40.5 101z" />
    <glyph glyph-name="quotesinglbase" unicode="&#x201a;" horiz-adv-x="522" 
d="M76 -252l135 504h235l-229 -504h-141z" />
    <glyph glyph-name="quotedblbase" unicode="&#x201e;" horiz-adv-x="897" 
d="M451 -248l137 502h233l-229 -502h-141zM76 -248l135 502h235l-229 -502h-141z" />
    <glyph glyph-name="perthousand" unicode="&#x2030;" horiz-adv-x="2726" 
d="M2111 352q0 -119 40.5 -184.5t113.5 -65.5q77 0 118.5 68t41.5 195q0 115 -40.5 177t-115.5 62q-76 0 -117 -64.5t-41 -187.5zM1946 348q0 182 83.5 279.5t239.5 97.5q155 0 238.5 -93t83.5 -265q0 -188 -86.5 -290t-245.5 -102q-150 0 -231.5 97.5t-81.5 275.5z
M1305 352q0 -119 40 -184.5t113 -65.5q78 0 120 68.5t42 194.5q0 114 -41 176.5t-117 62.5t-116.5 -64.5t-40.5 -187.5zM1141 348q0 183 83 280t238 97t238.5 -93t83.5 -265q0 -188 -86 -290t-246 -102q-150 0 -230.5 97t-80.5 276zM1307 1450h131l-840 -1475h-131z
M301 1077q0 -119 40 -184.5t114 -65.5q77 0 118 68t41 195q0 115 -40 177t-115 62q-77 0 -117.5 -64.5t-40.5 -187.5zM135 1073q0 182 84 279.5t240 97.5q155 0 238 -93t83 -265q0 -188 -86 -290t-245 -102q-151 0 -232.5 97.5t-81.5 275.5z" />
    <glyph glyph-name="Acircumflex" unicode="&#xc2;" horiz-adv-x="1460" 
d="M1006 549l-271 727l-286 -727h557zM219 0h-205l627 1475h211l592 -1475h-230l-147 381h-684zM455 1609l197 348h196l197 -348h-123l-172 230l-174 -230h-121z" />
    <glyph glyph-name="Ecircumflex" unicode="&#xca;" horiz-adv-x="1237" 
d="M170 0v1475h915v-175h-718v-448h688v-174h-688v-502h735v-176h-932zM336 1609l197 348h196l197 -348h-123l-172 230l-174 -230h-121z" />
    <glyph glyph-name="Aacute" unicode="&#xc1;" horiz-adv-x="1460" 
d="M1006 549l-271 727l-286 -727h557zM219 0h-205l627 1475h211l592 -1475h-230l-147 381h-684zM607 1609l204 348h201l-285 -348h-120z" />
    <glyph glyph-name="Edieresis" unicode="&#xcb;" horiz-adv-x="1237" 
d="M170 0v1475h915v-175h-718v-448h688v-174h-688v-502h735v-176h-932zM705 1669v209h182v-209h-182zM375 1669v209h182v-209h-182z" />
    <glyph glyph-name="Egrave" unicode="&#xc8;" horiz-adv-x="1237" 
d="M170 0v1475h915v-175h-718v-448h688v-174h-688v-502h735v-176h-932zM774 1609h-120l-285 348h201z" />
    <glyph glyph-name="Iacute" unicode="&#xcd;" horiz-adv-x="539" 
d="M367 0h-197v1475h197v-1475zM127 1609l204 348h201l-285 -348h-120z" />
    <glyph glyph-name="Icircumflex" unicode="&#xce;" horiz-adv-x="539" 
d="M367 0h-197v1475h197v-1475zM-25 1609l197 348h196l197 -348h-123l-172 230l-174 -230h-121z" />
    <glyph glyph-name="Idieresis" unicode="&#xcf;" horiz-adv-x="539" 
d="M367 0h-197v1475h197v-1475zM344 1669v209h182v-209h-182zM14 1669v209h182v-209h-182z" />
    <glyph glyph-name="Igrave" unicode="&#xcc;" horiz-adv-x="539" 
d="M367 0h-197v1475h197v-1475zM413 1609h-120l-285 348h201z" />
    <glyph glyph-name="Oacute" unicode="&#xd3;" horiz-adv-x="1579" 
d="M328 743q0 -287 119.5 -442.5t340.5 -155.5q224 0 342.5 152.5t118.5 441.5t-119 442.5t-342 153.5q-222 0 -341 -153t-119 -439zM117 733q0 367 175.5 565.5t498.5 198.5t497 -197.5t174 -566.5q0 -363 -175 -560.5t-496 -197.5q-320 0 -497 199t-177 559zM648 1609
l204 348h201l-285 -348h-120z" />
    <glyph glyph-name="Ocircumflex" unicode="&#xd4;" horiz-adv-x="1579" 
d="M328 743q0 -287 119.5 -442.5t340.5 -155.5q224 0 342.5 152.5t118.5 441.5t-119 442.5t-342 153.5q-222 0 -341 -153t-119 -439zM117 733q0 367 175.5 565.5t498.5 198.5t497 -197.5t174 -566.5q0 -363 -175 -560.5t-496 -197.5q-320 0 -497 199t-177 559zM496 1609
l197 348h196l197 -348h-123l-172 230l-174 -230h-121z" />
    <glyph glyph-name="apple" unicode="&#xf000;" horiz-adv-x="1618" 
d="M836 1216q-1 6 -1.5 14t-0.5 23q0 124 95 229.5t236 131.5q1 -10 1.5 -23t0.5 -39q0 -131 -103.5 -234.5t-203.5 -103.5h-8q-3 0 -7.5 1t-8.5 1zM1505 403q-114 -247 -205 -342.5t-204 -95.5q-50 0 -131.5 33t-122.5 33q-45 0 -131 -33t-127 -33q-64 0 -128.5 44
t-129.5 132q-102 140 -157.5 295.5t-55.5 300.5q0 219 125 356.5t323 137.5q68 0 155 -34t124 -34q34 0 121.5 35t152.5 35q110 0 198 -40t161 -124q-102 -65 -151.5 -145.5t-49.5 -182.5q0 -113 60 -200t173 -138z" />
    <glyph glyph-name="Ograve" unicode="&#xd2;" horiz-adv-x="1579" 
d="M328 743q0 -287 119.5 -442.5t340.5 -155.5q224 0 342.5 152.5t118.5 441.5t-119 442.5t-342 153.5q-222 0 -341 -153t-119 -439zM117 733q0 367 175.5 565.5t498.5 198.5t497 -197.5t174 -566.5q0 -363 -175 -560.5t-496 -197.5q-320 0 -497 199t-177 559zM934 1609
h-120l-285 348h201z" />
    <glyph glyph-name="Uacute" unicode="&#xda;" horiz-adv-x="1491" 
d="M152 1475h202v-871q0 -233 94 -341.5t293 -108.5q214 0 310 112.5t96 368.5v840h190v-963q0 -252 -162 -393.5t-452 -141.5q-285 0 -428 148.5t-143 441.5v908zM602 1609l204 348h201l-285 -348h-120z" />
    <glyph glyph-name="Ucircumflex" unicode="&#xdb;" horiz-adv-x="1491" 
d="M152 1475h202v-871q0 -233 94 -341.5t293 -108.5q214 0 310 112.5t96 368.5v840h190v-963q0 -252 -162 -393.5t-452 -141.5q-285 0 -428 148.5t-143 441.5v908zM450 1609l197 348h196l197 -348h-123l-172 230l-174 -230h-121z" />
    <glyph glyph-name="Ugrave" unicode="&#xd9;" horiz-adv-x="1491" 
d="M152 1475h202v-871q0 -233 94 -341.5t293 -108.5q214 0 310 112.5t96 368.5v840h190v-963q0 -252 -162 -393.5t-452 -141.5q-285 0 -428 148.5t-143 441.5v908zM888 1609h-120l-285 348h201z" />
    <glyph glyph-name="dotlessi" unicode="&#x131;" horiz-adv-x="512" 
d="M162 0v1028h190v-1028h-190z" />
    <glyph glyph-name="circumflex" unicode="&#x2c6;" 
d="M217 1163l197 348h196l197 -348h-123l-172 230l-174 -230h-121z" />
    <glyph glyph-name="tilde" unicode="&#x2dc;" 
d="M805 1442q-20 -102 -70.5 -155.5t-126.5 -53.5q-14 0 -30.5 2.5t-34.5 7.5l-97 27q-12 4 -24 6t-25 2q-31 0 -53.5 -16.5t-36.5 -51.5h-88q18 99 68 152t125 53q17 0 32 -2t27 -6l98 -29q23 -6 33.5 -8t18.5 -2q35 0 57.5 17t38.5 57h88z" />
    <glyph glyph-name="macron" unicode="&#xaf;" 
d="M242 1257v140h540v-140h-540z" />
    <glyph glyph-name="breve" unicode="&#x2d8;" 
d="M221 1477l109 -1q5 -72 49 -105.5t133 -33.5t133 33.5t49 105.5l109 1q-11 -146 -80.5 -212.5t-210.5 -66.5t-210.5 66.5t-80.5 212.5z" />
    <glyph glyph-name="dotaccent" unicode="&#x2d9;" 
d="M416 1217v221h192v-221h-192z" />
    <glyph glyph-name="ring" unicode="&#x2da;" 
d="M397 1350q0 -49 33 -82t82 -33q47 0 82 34t35 81q0 46 -35.5 81t-81.5 35q-47 0 -81 -34t-34 -82zM283 1350q0 95 67 162t162 67t162 -67t67 -162t-66.5 -161.5t-162.5 -66.5t-162.5 66.5t-66.5 161.5z" />
    <glyph glyph-name="cedilla" unicode="&#xb8;" 
d="M256 -426v100q75 -18 140.5 -28.5t105.5 -10.5q60 0 90.5 20.5t30.5 61.5q0 43 -32.5 64.5t-94.5 21.5q-20 0 -33.5 -0.5t-26.5 -0.5v198h76v-102h31q106 0 163.5 -45.5t57.5 -128.5q0 -97 -63 -146t-187 -49q-49 0 -114 11.5t-144 33.5z" />
    <glyph glyph-name="hungarumlaut" unicode="&#x2dd;" 
d="M569 1163l166 348h176l-245 -348h-97zM311 1163l138 348h178l-219 -348h-97z" />
    <glyph glyph-name="ogonek" unicode="&#x2db;" 
d="M606 0q-73 -65 -105 -117t-32 -104q0 -43 21 -60.5t75 -17.5h84v-143h-86q-113 0 -169 42t-56 126q0 64 40.5 125.5t145.5 148.5h82z" />
    <glyph glyph-name="caron" unicode="&#x2c7;" 
d="M217 1511h121l174 -227l172 227h123l-197 -348h-196z" />
    <glyph glyph-name="Lslash" unicode="&#x141;" horiz-adv-x="1104" 
d="M184 0v616l-184 -129v175l184 131v682h195v-588l350 246v-177l-350 -245v-535h672v-176h-867z" />
    <glyph glyph-name="lslash" unicode="&#x142;" horiz-adv-x="524" 
d="M365 848l176 123v-129l-176 -123v-719h-189v643l-176 -123v129l176 123v703h189v-627z" />
    <glyph glyph-name="Scaron" unicode="&#x160;" horiz-adv-x="1343" 
d="M325 432q6 -145 89 -213.5t252 -68.5q166 0 262 68.5t96 187.5q0 168 -343 255q-37 9 -59 15q-23 6 -67 17q-189 46 -264 91q-75 46 -117.5 125t-42.5 174q0 192 148.5 303t408.5 111q229 0 360.5 -97.5t131.5 -266.5v-23h-199q-5 109 -85 167t-226 58
q-151 0 -240.5 -65.5t-89.5 -175.5q0 -143 315 -224q25 -6 40 -10q343 -89 438.5 -178.5t95.5 -247.5q0 -222 -148 -340.5t-428 -118.5q-269 0 -403.5 108t-134.5 325v24h210zM377 1957h121l174 -227l172 227h123l-197 -348h-196z" />
    <glyph glyph-name="scaron" unicode="&#x161;" horiz-adv-x="1006" 
d="M84 309h190v-4q0 -84 59 -135t156 -51q98 0 158 44t60 116q0 54 -30.5 88t-92.5 49l-219 51q-138 32 -205.5 99t-67.5 169q0 139 113 228.5t293 89.5q179 0 281 -73t102 -200q0 -12 -0.5 -18.5t-1.5 -11.5h-189v8q0 74 -53.5 117t-144.5 43q-88 0 -145.5 -43t-57.5 -107
q0 -49 35 -80t116 -53l234 -64q121 -32 179 -100t58 -176q0 -151 -112.5 -235.5t-315.5 -84.5q-201 0 -300 76t-99 230v28zM209 1511h121l174 -227l172 227h123l-197 -348h-196z" />
    <glyph glyph-name="Zcaron" unicode="&#x17d;" horiz-adv-x="1233" 
d="M1159 0h-1085v209l846 1089h-811v177h1024v-211l-838 -1082h864v-182zM321 1957h121l174 -227l172 227h123l-197 -348h-196z" />
    <glyph glyph-name="zcaron" unicode="&#x17e;" horiz-adv-x="899" 
d="M66 0v190l548 697h-514v141h723v-166l-563 -717h561v-145h-755zM156 1511h121l174 -227l172 227h123l-197 -348h-196z" />
    <glyph glyph-name="brokenbar" unicode="&#xa6;" 
d="M588 408v-758h-150v758h150zM588 1432v-758h-150v758h150z" />
    <glyph glyph-name="Eth" unicode="&#xd0;" horiz-adv-x="1481" 
d="M696 176q237 0 355 135t118 406q0 287 -131.5 441.5t-375.5 154.5h-281v-477h344v-156h-344v-504h315zM651 0h-465v680h-186v156h186v643h412q209 0 321.5 -30t200.5 -99q125 -99 190.5 -261.5t65.5 -369.5q0 -171 -46.5 -312.5t-133.5 -232.5q-89 -94 -208 -134
t-337 -40z" />
    <glyph glyph-name="eth" unicode="&#xf0;" horiz-adv-x="1233" 
d="M618 813q-147 0 -232 -96t-85 -262q0 -162 81.5 -250t231.5 -88q148 0 233 93t85 257q0 165 -82 255.5t-232 90.5zM864 868q-45 78 -103 148.5t-132 138.5l-305 -127l-52 96l258 109l-10 7q-133 87 -203 122l93 113q67 -31 142 -74.5t157 -100.5l288 121l52 -96
l-242 -102q157 -143 240 -326.5t83 -390.5q0 -253 -135 -392t-381 -139q-240 0 -374 123t-134 342q0 226 135.5 365t352.5 139q70 0 136 -18.5t134 -57.5z" />
    <glyph glyph-name="Yacute" unicode="&#xdd;" horiz-adv-x="1346" 
d="M776 0h-196v582l-562 893h244l426 -719l414 719h225l-551 -893v-582zM531 1609l204 348h201l-285 -348h-120z" />
    <glyph glyph-name="yacute" unicode="&#xfd;" horiz-adv-x="1112" 
d="M453 2l-420 1026h192l328 -815l332 815h188l-602 -1417h-176zM414 1163l204 348h201l-285 -348h-120z" />
    <glyph glyph-name="Thorn" unicode="&#xde;" horiz-adv-x="1235" 
d="M651 530q164 0 234.5 55.5t70.5 180.5q0 129 -69.5 184.5t-235.5 55.5h-284v-476h284zM170 0v1475h197v-299h317q242 0 361.5 -101t119.5 -305q0 -218 -139.5 -320t-437.5 -102h-221v-348h-197z" />
    <glyph glyph-name="thorn" unicode="&#xfe;" horiz-adv-x="1233" 
d="M346 535q0 -196 80.5 -311t212.5 -115q135 0 216 107t81 288q0 196 -79.5 310t-213.5 114t-215.5 -106.5t-81.5 -286.5zM158 -389v1864h188v-601q58 90 140.5 134.5t191.5 44.5q212 0 332 -142t120 -393q0 -259 -115.5 -396.5t-332.5 -137.5q-103 0 -189.5 44.5
t-146.5 129.5v-547h-188z" />
    <glyph glyph-name="minus" unicode="&#x2212;" horiz-adv-x="1706" 
d="M1452 682v-141h-1198v141h1198z" />
    <glyph glyph-name="multiply" unicode="&#xd7;" horiz-adv-x="1706" 
d="M860 709l469 469l98 -99l-469 -469l469 -469l-98 -96l-469 467l-469 -467l-98 96l469 469l-469 469l98 99z" />
    <glyph glyph-name="onesuperior" unicode="&#xb9;" horiz-adv-x="748" 
d="M377 571v717q-46 -36 -98 -65.5t-109 -51.5v127q73 33 122.5 63.5t84.5 65.5h131v-856h-131z" />
    <glyph glyph-name="twosuperior" unicode="&#xb2;" horiz-adv-x="748" 
d="M668 571h-588v123q265 219 362 329.5t97 184.5q0 59 -42.5 97t-105.5 38q-75 0 -114 -37.5t-39 -109.5h-143q4 117 77.5 181.5t202.5 64.5q135 0 215 -63.5t80 -172.5q0 -75 -41.5 -143t-173.5 -189l-222 -202h435v-101z" />
    <glyph glyph-name="threesuperior" unicode="&#xb3;" horiz-adv-x="748" 
d="M56 799h141q6 -72 46 -106t119 -34q89 0 141 40.5t52 107.5q0 80 -60.5 120t-183.5 40h-20v94q129 3 188.5 39.5t59.5 111.5q0 59 -43.5 94t-116.5 35q-77 0 -122.5 -34t-47.5 -92h-135q2 105 81.5 166t217.5 61t219.5 -63.5t81.5 -170.5q0 -68 -42.5 -116t-127.5 -76
q88 -18 137 -73.5t49 -135.5q0 -112 -91 -181t-243 -69q-143 0 -221 63t-79 179z" />
    <glyph glyph-name="onequarter" unicode="&#xbc;" horiz-adv-x="1769" 
d="M1497 0v172h-407v139l383 488h143v-533h123v-94h-123v-172h-119zM1497 266v418l-309 -418h309zM373 -25l899 1475h125l-899 -1475h-125zM360 629v667q-41 -30 -91 -57.5t-107 -50.5v119q67 29 114.5 58t83.5 62h123v-798h-123z" />
    <glyph glyph-name="onehalf" unicode="&#xbd;" horiz-adv-x="1769" 
d="M1694 0h-561v115q251 201 344.5 305t93.5 174q0 55 -40 91t-101 36q-72 0 -109 -34.5t-37 -102.5h-137q5 109 75 169t193 60q128 0 204.5 -59.5t76.5 -159.5q0 -71 -39 -135t-166 -176l-211 -189h414v-94zM373 -25l899 1475h125l-899 -1475h-125zM360 629v667
q-41 -30 -91 -57.5t-107 -50.5v119q67 29 114.5 58t83.5 62h123v-798h-123z" />
    <glyph glyph-name="threequarters" unicode="&#xbe;" horiz-adv-x="1769" 
d="M1495 0v172h-408v139l383 488h144v-533h123v-94h-123v-172h-119zM1495 266v418l-309 -418h309zM371 -25l899 1475h125l-899 -1475h-125zM53 842h135q7 -68 45 -99.5t113 -31.5q85 0 134.5 37.5t49.5 101.5q0 74 -58 110.5t-173 36.5h-23l1 88q123 4 180 38t57 104
q0 55 -41.5 88t-112.5 33t-115.5 -33t-46.5 -86h-128q1 97 77.5 154t208.5 57t209.5 -58.5t77.5 -156.5q0 -65 -41 -110.5t-123 -72.5q84 -15 131 -65.5t47 -126.5q0 -106 -86 -171t-231 -65q-137 0 -212 59.5t-75 168.5z" />
    <glyph glyph-name="franc" unicode="&#x20a3;" horiz-adv-x="1884" 
d="M170 0v1475h858v-177h-661v-452h626v-176h-626v-670h-197zM1282 0v903q0 28 -1.5 59t-4.5 66h190l4 -197q28 98 100.5 147.5t188.5 49.5q19 0 38.5 -1.5t39.5 -5.5v-177q-30 6 -55 9t-48 3q-127 0 -195.5 -72t-68.5 -206v-578h-188z" />
    <glyph glyph-name="Gbreve" unicode="&#x11e;" horiz-adv-x="1524" 
d="M1354 68q-146 -48 -273 -71.5t-245 -23.5q-334 0 -527.5 197t-193.5 535q0 374 190 583t531 209q236 0 374 -104t144 -285h-215q-4 103 -96.5 170.5t-233.5 67.5q-229 0 -358 -163.5t-129 -453.5q0 -280 137 -436t385 -156q62 0 134.5 13t166.5 40v439h-307v166h516v-727
zM471 1923l109 -1q5 -72 49 -105.5t133 -33.5t133 33.5t49 105.5l109 1q-11 -146 -80.5 -212.5t-210.5 -66.5t-210.5 66.5t-80.5 212.5z" />
    <glyph glyph-name="gbreve" unicode="&#x11f;" horiz-adv-x="1214" 
d="M879 559q0 167 -79 265t-212 98q-131 0 -209 -106t-78 -288q0 -167 79 -264.5t212 -97.5q130 0 208.5 105.5t78.5 287.5zM856 195q-31 -63 -120.5 -105.5t-196.5 -42.5q-208 0 -322.5 131.5t-114.5 370.5q0 235 121 369.5t332 134.5q107 0 189.5 -40t125.5 -112l7 127
h178q-4 -52 -6 -98.5t-2 -83.5v-813q0 -230 -114.5 -335.5t-363.5 -105.5q-217 0 -315 81.5t-100 262.5h204q2 -102 60.5 -156t169.5 -54q137 0 202.5 67.5t65.5 208.5v193zM317 1477l109 -1q5 -72 49 -105.5t133 -33.5t133 33.5t49 105.5l109 1q-11 -146 -80.5 -212.5
t-210.5 -66.5t-210.5 66.5t-80.5 212.5z" />
    <glyph glyph-name="Idotaccent" unicode="&#x130;" horiz-adv-x="539" 
d="M367 0h-197v1475h197v-1475zM174 1663v221h192v-221h-192z" />
    <glyph glyph-name="Scedilla" unicode="&#x15e;" horiz-adv-x="1343" 
d="M325 432q6 -145 89 -213.5t252 -68.5q166 0 262 68.5t96 187.5q0 168 -343 255q-37 9 -59 15q-23 6 -67 17q-189 46 -264 91q-75 46 -117.5 125t-42.5 174q0 192 148.5 303t408.5 111q229 0 360.5 -97.5t131.5 -266.5v-23h-199q-5 109 -85 167t-226 58
q-151 0 -240.5 -65.5t-89.5 -175.5q0 -143 315 -224q25 -6 40 -10q343 -89 438.5 -178.5t95.5 -247.5q0 -222 -148 -340.5t-428 -118.5q-269 0 -403.5 108t-134.5 325v24h210zM416 -426v100q75 -18 140.5 -28.5t105.5 -10.5q60 0 90.5 20.5t30.5 61.5q0 43 -32.5 64.5
t-94.5 21.5q-20 0 -33.5 -0.5t-26.5 -0.5v198h76v-102h31q106 0 163.5 -45.5t57.5 -128.5q0 -97 -63 -146t-187 -49q-49 0 -114 11.5t-144 33.5z" />
    <glyph glyph-name="scedilla" unicode="&#x15f;" horiz-adv-x="1006" 
d="M84 309h190v-4q0 -84 59 -135t156 -51q98 0 158 44t60 116q0 54 -30.5 88t-92.5 49l-219 51q-138 32 -205.5 99t-67.5 169q0 139 113 228.5t293 89.5q179 0 281 -73t102 -200q0 -12 -0.5 -18.5t-1.5 -11.5h-189v8q0 74 -53.5 117t-144.5 43q-88 0 -145.5 -43t-57.5 -107
q0 -49 35 -80t116 -53l234 -64q121 -32 179 -100t58 -176q0 -151 -112.5 -235.5t-315.5 -84.5q-201 0 -300 76t-99 230v28zM248 -426v100q75 -18 140.5 -28.5t105.5 -10.5q60 0 90.5 20.5t30.5 61.5q0 43 -32.5 64.5t-94.5 21.5q-20 0 -33.5 -0.5t-26.5 -0.5v198h76v-102h31
q106 0 163.5 -45.5t57.5 -128.5q0 -97 -63 -146t-187 -49q-49 0 -114 11.5t-144 33.5z" />
    <glyph glyph-name="Cacute" unicode="&#x106;" horiz-adv-x="1356" 
d="M1268 397q-4 -194 -149 -308t-390 -114q-299 0 -456.5 193.5t-157.5 560.5t164 567.5t466 200.5q238 0 376 -109t143 -300h-209q-10 111 -98.5 182t-217.5 71q-196 0 -304.5 -158.5t-108.5 -447.5q0 -282 105 -436t298 -154q140 0 224.5 67t95.5 185h219zM619 1609
l204 348h201l-285 -348h-120z" />
    <glyph glyph-name="cacute" unicode="&#x107;" horiz-adv-x="1057" 
d="M956 346q-12 -180 -115 -275.5t-286 -95.5q-219 0 -338 134.5t-119 382.5q0 265 124.5 413t346.5 148q173 0 276 -93.5t103 -250.5v-4h-184q0 92 -60 153.5t-149 61.5q-123 0 -191.5 -105t-68.5 -295q0 -195 66 -298t190 -103q99 0 159 61.5t62 165.5h184zM404 1163
l204 348h201l-285 -348h-120z" />
    <glyph glyph-name="Ccaron" unicode="&#x10c;" horiz-adv-x="1356" 
d="M1268 397q-4 -194 -149 -308t-390 -114q-299 0 -456.5 193.5t-157.5 560.5t164 567.5t466 200.5q238 0 376 -109t143 -300h-209q-10 111 -98.5 182t-217.5 71q-196 0 -304.5 -158.5t-108.5 -447.5q0 -282 105 -436t298 -154q140 0 224.5 67t95.5 185h219zM467 1957h121
l174 -227l172 227h123l-197 -348h-196z" />
    <glyph glyph-name="ccaron" unicode="&#x10d;" horiz-adv-x="1057" 
d="M956 346q-12 -180 -115 -275.5t-286 -95.5q-219 0 -338 134.5t-119 382.5q0 265 124.5 413t346.5 148q173 0 276 -93.5t103 -250.5v-4h-184q0 92 -60 153.5t-149 61.5q-123 0 -191.5 -105t-68.5 -295q0 -195 66 -298t190 -103q99 0 159 61.5t62 165.5h184zM252 1511h121
l174 -227l172 227h123l-197 -348h-196z" />
    <glyph glyph-name="dcroat" unicode="&#x111;" horiz-adv-x="1241" 
d="M297 526q0 -196 80.5 -311t212.5 -115q135 0 216 106.5t81 287.5q0 196 -80 311t-213 115q-135 0 -216 -106.5t-81 -287.5zM895 0l-8 152q-72 -94 -149.5 -135.5t-180.5 -41.5q-212 0 -334.5 142t-122.5 389q0 253 119.5 395.5t331.5 142.5q106 0 190.5 -43t145.5 -129
v297h-330v111h330v195h188v-195h211v-111h-211v-964q0 -46 3 -97t9 -108h-192z" />
    <glyph glyph-name="sfthyphen" unicode="&#xad;" horiz-adv-x="678" 
d="M96 428v172h486v-172h-486z" />
    <glyph glyph-name="periodcentered" unicode="&#x2219;" horiz-adv-x="567" 
d="M143 715q0 58 40.5 98.5t99.5 40.5q57 0 99 -41t42 -98q0 -59 -41.5 -100.5t-99.5 -41.5q-59 0 -99.5 41t-40.5 101z" />
    <glyph glyph-name="Euro" horiz-adv-x="1133" 
d="M147 547h-141l53 121h82q-1 24 -1.5 46t-0.5 42q0 12 0.5 25.5t1.5 29.5h-164l52 117h118q20 276 149 422.5t351 146.5q193 0 301.5 -108.5t114.5 -309.5l-199 1q-9 119 -69.5 187t-157.5 68q-121 0 -197.5 -107t-91.5 -300h443l-52 -117h-399q-1 -24 -1.5 -45.5
t-0.5 -42.5q0 -13 0.5 -26.5t1.5 -28.5h334l-53 -121h-273q15 -200 89 -305t200 -105q96 0 156.5 70.5t64.5 187.5h209q-2 -192 -119.5 -306t-314.5 -114q-208 0 -334.5 149t-151.5 423z" />
    <glyph glyph-name="Euro" unicode="&#x20ac;" horiz-adv-x="1133" 
d="M147 547h-141l53 121h82q-1 24 -1.5 46t-0.5 42q0 12 0.5 25.5t1.5 29.5h-164l52 117h118q20 276 149 422.5t351 146.5q193 0 301.5 -108.5t114.5 -309.5l-199 1q-9 119 -69.5 187t-157.5 68q-121 0 -197.5 -107t-91.5 -300h443l-52 -117h-399q-1 -24 -1.5 -45.5
t-0.5 -42.5q0 -13 0.5 -26.5t1.5 -28.5h334l-53 -121h-273q15 -200 89 -305t200 -105q96 0 156.5 70.5t64.5 187.5h209q-2 -192 -119.5 -306t-314.5 -114q-208 0 -334.5 149t-151.5 423z" />
    </font>
</defs>
</svg>
